<svg version="1.1" id="Layer_1" xmlns="http://www.w3.org/2000/svg" xmlns:xlink="http://www.w3.org/1999/xlink" x="0px" y="0px"
	 width="100%" viewBox="0 0 1032 1031" enable-background="new 0 0 1032 1031" xml:space="preserve">
<path fill="#FFFFFF" opacity="1.000000" stroke="none" 
	d="
M676.000000,1032.000000 
	C450.666656,1032.000000 225.833328,1032.000000 1.000000,1032.000000 
	C1.000000,688.333313 1.000000,344.666656 1.000000,1.000000 
	C345.000000,1.000000 689.000000,1.000000 1033.000000,1.000000 
	C1033.000000,344.666656 1033.000000,688.333313 1033.000000,1032.000000 
	C914.166687,1032.000000 795.333313,1032.000000 676.000000,1032.000000 
M328.343018,358.961304 
	C318.647736,366.607910 307.960846,371.735748 295.279297,371.179779 
	C295.384583,369.653259 295.489868,368.126770 296.374420,366.441254 
	C306.479340,364.800781 316.064545,361.827087 324.637299,355.975433 
	C336.563629,347.834717 339.764160,332.305939 333.525269,321.328339 
	C324.831116,306.030579 317.295105,290.074768 309.252930,274.405945 
	C308.437531,272.817291 307.549957,271.265656 306.499298,269.335785 
	C284.584595,282.627197 263.044922,295.691132 241.019104,309.049927 
	C248.168365,321.976807 255.057419,334.433197 262.011475,347.838928 
	C261.983795,356.243530 261.956116,364.648163 261.005859,373.124329 
	C249.918823,373.124329 238.831787,373.124329 227.482162,373.124329 
	C227.062836,365.573547 226.679443,358.669861 226.220078,350.398224 
	C224.715805,352.876495 223.922211,354.095001 223.215286,355.361908 
	C213.735840,372.350403 204.459717,389.457092 194.664444,406.261261 
	C192.197830,410.492828 192.477478,413.433136 194.764038,417.470428 
	C204.350067,434.396240 213.577423,451.525116 222.955887,468.568756 
	C223.713486,469.945526 224.620392,471.240204 226.096527,473.589355 
	C226.516464,464.790588 226.877563,457.225006 227.257401,449.266541 
	C238.971252,449.266541 250.410950,449.266541 261.993713,450.160645 
	C261.995026,485.302216 262.072876,520.444031 261.952911,555.585205 
	C261.914948,566.706177 259.377258,577.248169 250.858704,585.086975 
	C246.148300,589.421570 240.543976,592.784668 235.208786,596.683472 
	C240.196548,605.420837 245.290512,614.344238 250.357208,623.219849 
	C275.941833,614.540833 294.280853,590.822876 294.882599,564.177002 
	C295.532959,535.377625 295.177368,506.555634 295.266785,477.743530 
	C295.324158,459.259674 295.392822,440.775879 295.892365,421.784424 
	C305.454803,403.961914 315.040283,386.151672 324.557404,368.304962 
	C326.174713,365.272125 327.498718,362.082886 329.410034,358.926147 
	C329.380646,358.711945 329.351288,358.497711 329.321930,358.283508 
	C329.230011,358.538513 329.138123,358.793488 328.343018,358.961304 
M38.204071,358.590576 
	C37.960022,358.327698 37.715973,358.064789 37.471931,357.801910 
	C37.403225,357.902405 37.254700,358.062775 37.278164,358.094055 
	C37.510090,358.403107 37.770519,358.690765 38.030983,359.705750 
	C51.509720,384.555176 64.852798,409.480255 78.618004,434.169983 
	C80.611534,437.745636 84.145554,441.264771 87.818619,442.922516 
	C94.065445,445.741943 100.923836,448.430237 107.641159,448.751709 
	C127.073891,449.681793 146.564255,449.413055 166.032318,449.579163 
	C166.809311,449.585785 167.589417,449.227844 168.446594,449.020813 
	C168.446594,423.759705 168.446594,398.699860 168.446594,373.770233 
	C167.848709,373.497650 167.557770,373.250397 167.264450,373.247528 
	C137.961426,372.962250 108.656837,372.409821 79.355591,372.549957 
	C65.022667,372.618500 52.033073,369.670654 40.755672,360.520599 
	C39.948151,359.865417 38.878300,359.533539 38.204071,358.590576 
M760.943481,402.500000 
	C760.943481,371.890259 760.943481,341.280487 760.943481,310.462616 
	C749.742065,310.462616 739.028137,310.462616 727.918091,310.462616 
	C727.918091,348.859863 727.918091,386.952820 727.918091,425.147522 
	C686.628784,425.147522 645.738159,425.147522 604.349365,425.147522 
	C604.349365,386.759094 604.349365,348.682678 604.349365,310.526703 
	C593.151672,310.526703 582.457153,310.526703 571.628662,310.526703 
	C571.628662,398.140106 571.628662,485.382751 571.628662,572.872498 
	C582.572144,572.872498 593.280701,572.872498 604.398560,572.872498 
	C604.398560,533.489624 604.398560,494.403168 604.398560,455.081970 
	C645.714050,455.081970 686.619446,455.081970 728.057251,455.081970 
	C728.057251,494.479767 728.057251,533.693176 728.057251,572.782471 
	C739.307495,572.782471 750.021851,572.782471 760.943481,572.782471 
	C760.943481,516.095947 760.943481,459.797974 760.943481,402.500000 
M341.599640,573.168701 
	C351.521637,573.168701 361.443604,573.168701 371.821136,573.168701 
	C371.821136,533.380066 371.821136,494.306366 371.821136,455.207764 
	C413.173676,455.207764 454.052460,455.207764 495.349365,455.207764 
	C495.349365,494.661560 495.349365,533.752747 495.349365,572.965820 
	C506.373383,572.965820 516.976562,572.965820 527.808716,572.965820 
	C527.808716,485.371216 527.808716,397.981842 527.808716,310.542511 
	C516.821228,310.542511 506.112671,310.542511 494.950195,310.542511 
	C494.950195,349.020569 494.950195,387.114532 494.950195,425.187500 
	C453.725677,425.187500 412.963776,425.187500 371.685913,425.187500 
	C371.685913,386.837891 371.685913,348.760773 371.685913,310.518036 
	C360.463531,310.518036 349.761169,310.518036 338.788940,310.518036 
	C338.788940,312.868591 338.788971,314.858429 338.788971,316.848297 
	C338.788940,394.514069 338.788971,472.179810 338.789001,549.845581 
	C338.789001,556.345520 338.691986,562.848083 338.871918,569.343018 
	C338.907532,570.628479 340.007599,571.884460 341.599640,573.168701 
M963.139526,532.598572 
	C963.770203,531.060913 964.477722,529.549866 965.020386,527.981750 
	C975.308899,498.248383 969.287781,461.861206 936.216980,442.930359 
	C921.641785,434.587097 905.826294,429.651459 890.124878,424.196381 
	C874.468445,418.756958 858.495789,413.774811 843.657776,406.547455 
	C825.215820,397.564667 818.076477,377.880737 825.080322,360.217773 
	C830.615723,346.257935 842.387634,340.059387 856.133728,337.108398 
	C876.423035,332.752838 896.615479,334.556274 916.469421,339.741272 
	C927.171082,342.536072 937.565979,346.505829 948.460449,350.063416 
	C952.031555,341.331970 955.650879,332.482666 959.368896,323.391937 
	C957.956116,322.773376 956.918274,322.307159 955.871399,321.862396 
	C938.141296,314.329681 919.615967,309.718445 900.561951,307.319458 
	C878.190979,304.502869 855.976135,304.807648 834.542053,312.928864 
	C813.369019,320.951202 798.122253,334.923279 792.643860,357.555573 
	C786.082397,384.661591 792.743530,413.814087 820.799683,430.794922 
	C836.638306,440.381195 854.096191,445.664825 871.623718,450.960144 
	C888.630859,456.098145 905.852600,460.852692 920.516052,471.617523 
	C938.363342,484.719727 942.551758,510.073181 929.507385,528.003906 
	C920.003113,541.068359 906.001404,546.098389 890.739380,548.012756 
	C866.197693,551.091125 842.612122,546.597290 819.888245,537.482544 
	C810.739746,533.813049 802.044617,529.013184 792.811768,524.568237 
	C788.888550,533.557007 784.936035,542.612915 780.930298,551.790710 
	C783.138794,553.178650 784.889282,554.464172 786.795105,555.449219 
	C825.607361,575.510132 866.391418,583.594971 909.501709,573.834351 
	C933.077637,568.496521 951.897461,555.771240 963.139526,532.598572 
M288.578491,212.056274 
	C284.780426,213.967972 280.982330,215.879654 276.951172,217.908661 
	C275.352203,215.011780 274.072876,212.700409 272.799469,210.385773 
	C268.631012,202.808701 264.711609,195.081055 260.238403,187.688446 
	C253.896912,177.208252 244.440887,170.533066 232.160858,170.340836 
	C209.362839,169.983948 186.548416,170.693588 163.740570,170.936279 
	C158.821869,170.988617 153.902145,170.943924 148.982895,170.943924 
	C165.953690,177.918716 176.396927,191.117737 184.793533,206.415131 
	C192.475983,220.411453 200.176697,234.397751 207.866882,248.389847 
	C208.957184,250.373657 210.033432,252.365189 211.176178,254.463318 
	C204.828873,258.588226 198.909882,262.434784 192.990891,266.281342 
	C193.067322,266.797607 193.143768,267.313904 193.220200,267.830200 
	C215.299179,267.830200 237.378754,267.894348 259.455719,267.683838 
	C260.907043,267.670013 262.796417,265.842010 263.707550,264.376373 
	C272.051117,250.954880 280.224060,237.427338 288.444763,223.929520 
	C291.579559,218.782410 294.709137,213.632126 297.841095,208.483292 
	C297.579803,208.216797 297.318512,207.950317 297.057220,207.683838 
	C294.456665,209.040100 291.856140,210.396362 288.578491,212.056274 
M52.015625,362.625732 
	C63.370884,367.899078 75.475677,368.173279 87.675919,368.252502 
	C91.455406,368.277008 93.656700,367.232605 95.622147,363.894623 
	C102.539688,352.146332 109.816757,340.609589 116.971397,329.001221 
	C117.896873,327.499634 118.904381,326.048584 120.005943,324.373322 
	C126.485741,327.816589 132.507004,331.016205 139.273254,334.611694 
	C138.844498,332.990936 138.809311,332.483856 138.588638,332.077515 
	C127.799385,312.210114 117.054001,292.318024 106.061844,272.563324 
	C105.294296,271.183960 102.686127,270.113037 100.930573,270.108246 
	C79.957024,270.050873 58.982800,270.216766 38.008915,270.349548 
	C36.753483,270.357483 35.499413,270.580933 33.137711,270.812714 
	C40.280548,276.467621 46.600685,281.471191 52.997665,286.535583 
	C46.466904,299.005157 40.103577,311.235931 33.661152,323.424866 
	C29.937517,330.469910 30.143583,337.421906 33.720402,344.429810 
	C37.714222,352.254700 43.866898,357.911804 52.015625,362.625732 
M110.539452,193.024689 
	C101.498497,206.898621 92.457535,220.772568 83.175667,235.016190 
	C105.467705,248.091324 127.193100,260.834106 149.030197,273.642395 
	C150.025681,272.190948 150.714172,271.269562 151.317337,270.295349 
	C161.034439,254.601288 170.517181,238.755051 180.584030,223.288879 
	C183.647110,218.582962 183.741867,215.135880 180.899673,210.406616 
	C173.275192,197.719894 164.825073,185.922607 151.803986,178.173386 
	C137.887360,169.891174 121.685089,172.847473 114.456276,186.972610 
	C113.476852,188.886398 112.113976,190.603943 110.539452,193.024689 
M723.204346,780.989014 
	C731.842834,780.347656 736.811707,777.225098 738.075989,771.643250 
	C739.503540,765.340698 737.247437,761.073242 730.351562,757.247009 
	C735.088379,754.378113 737.801575,750.518311 736.384460,744.787598 
	C735.014648,739.248108 730.676147,736.829651 725.694153,736.491089 
	C717.968445,735.966064 710.180847,736.352417 702.430969,736.352417 
	C702.430969,751.385071 702.430969,766.102478 702.430969,781.011963 
	C709.286865,781.011963 715.777466,781.011963 723.204346,780.989014 
M607.441406,781.013794 
	C608.399841,780.270691 610.185303,779.537415 610.194214,778.783142 
	C610.360901,764.654602 610.316650,750.523438 610.316650,736.366211 
	C607.658264,736.366211 605.425720,736.366211 602.691162,736.366211 
	C602.691162,746.699097 602.691162,756.712463 602.691162,768.013062 
	C595.230225,758.019104 588.330627,749.283020 582.041504,740.127625 
	C579.134888,735.896362 575.903564,735.378601 571.513916,736.524658 
	C571.513916,751.345642 571.513916,765.934937 571.513916,780.649048 
	C574.116760,780.649048 576.472229,780.649048 579.319214,780.649048 
	C579.319214,770.296570 579.319214,760.302917 579.319214,749.366455 
	C586.810486,759.439148 593.543335,768.738953 600.614746,777.773804 
	C601.896057,779.410950 604.565186,779.961792 607.441406,781.013794 
M579.315613,692.939148 
	C579.315613,678.714661 579.315613,664.490173 579.315613,650.305542 
	C576.481934,650.305542 574.394165,650.305542 571.817627,650.305542 
	C571.817627,660.589111 571.817627,670.616028 571.817627,682.161072 
	C564.381409,672.211243 557.619812,663.638733 551.429749,654.671692 
	C548.542480,650.489136 545.434204,648.953125 540.618774,650.560181 
	C540.618774,665.328064 540.618774,680.041992 540.618774,694.717529 
	C543.220337,694.717529 545.465637,694.717529 548.178711,694.717529 
	C548.178711,684.415405 548.178711,674.401062 548.178711,663.209534 
	C555.848572,673.501404 562.842834,682.752441 569.675964,692.121094 
	C572.446716,695.920044 575.579285,696.014648 579.315613,692.939148 
M820.129944,695.133301 
	C833.224731,695.759521 843.150024,689.449463 845.997864,678.687622 
	C849.385681,665.885315 841.979309,653.686951 828.914062,650.550720 
	C815.328186,647.289490 802.191528,655.227783 799.537109,668.302917 
	C796.935059,681.119263 805.491150,692.696350 820.129944,695.133301 
M904.231567,695.015076 
	C905.303040,695.015076 906.374451,695.015076 908.156250,695.015076 
	C904.656982,689.679321 901.613525,685.038574 898.501648,680.293457 
	C899.395020,679.652771 899.904358,679.248718 900.450073,678.901855 
	C907.030457,674.720764 908.304138,668.424133 906.955200,661.429993 
	C905.691406,654.877625 900.945679,651.274109 894.692688,650.782349 
	C886.995361,650.177002 879.214172,650.637756 871.384399,650.637756 
	C871.384399,665.341797 871.384399,680.058777 871.384399,694.717651 
	C873.961426,694.717651 876.214600,694.717651 879.042358,694.717651 
	C879.042358,690.212036 879.042358,685.987427 879.042358,682.145203 
	C887.769348,679.878235 893.910461,681.947144 896.840698,690.434998 
	C896.999817,690.896057 897.410706,691.266968 897.591125,691.724548 
	C898.650391,694.411255 900.573547,695.525085 904.231567,695.015076 
M415.932220,680.495972 
	C415.932220,685.251892 415.932220,690.007812 415.932220,694.923828 
	C423.389954,694.923828 430.218658,695.281555 436.995880,694.843506 
	C448.347198,694.109863 456.596283,685.492432 457.491760,674.083435 
	C458.377808,662.794373 451.370239,652.665100 439.984314,650.956116 
	C432.250305,649.795349 424.201202,650.734436 415.932220,650.734436 
	C415.932220,660.241272 415.932220,669.869080 415.932220,680.495972 
M490.614166,657.058899 
	C498.362244,657.058899 506.110321,657.058899 513.731689,657.058899 
	C513.731689,654.287537 513.731689,652.354919 513.731689,650.334717 
	C503.066345,650.334717 492.673370,650.334717 482.265747,650.334717 
	C482.265747,665.339478 482.265747,680.050659 482.265747,694.593262 
	C493.309540,694.593262 504.017365,694.593262 514.910828,694.593262 
	C514.807434,692.247864 514.722839,690.328857 514.618713,687.966919 
	C506.044861,687.966919 497.952972,687.966919 489.864838,687.966919 
	C489.864838,683.758728 489.864838,680.025452 489.864838,675.856567 
	C497.091278,675.856567 504.006500,675.856567 511.080353,675.856567 
	C511.080353,673.332703 511.080353,671.265259 511.080353,668.838135 
	C503.809967,668.838135 496.857239,668.838135 489.787079,668.838135 
	C489.787079,664.850403 489.787079,661.223938 490.614166,657.058899 
M654.544495,770.953613 
	C657.041931,770.953613 659.582214,771.246643 662.027222,770.888428 
	C666.235962,770.271851 668.670654,771.969849 669.491089,775.954163 
	C670.713196,781.888855 674.610413,781.613525 679.542603,780.470947 
	C673.578247,766.786133 667.695251,753.436829 661.967468,740.021301 
	C660.812805,737.316711 659.562561,735.875488 656.230713,735.883850 
	C652.904053,735.892273 651.699951,737.318176 650.557983,740.041931 
	C647.219238,748.005676 643.589294,755.847046 640.105103,763.750244 
	C637.644958,769.330566 635.236450,774.933594 632.836365,780.454041 
	C638.554871,782.427979 641.791931,780.504578 643.004089,775.088562 
	C643.740479,771.798523 645.632874,770.350952 649.083374,770.913879 
	C650.543030,771.151978 652.073792,770.953613 654.544495,770.953613 
M495.888611,740.489502 
	C494.943756,737.317017 493.271820,735.880371 489.517639,735.839111 
	C485.726105,735.797424 485.173950,738.129761 484.128906,740.471802 
	C480.819122,747.889038 477.542236,755.321106 474.281067,762.759888 
	C471.702728,768.640991 469.166321,774.540588 466.611328,780.431946 
	C466.910400,780.894653 467.209473,781.357361 467.508575,781.820068 
	C470.066223,780.783569 474.409241,780.254333 474.872681,778.622864 
	C476.886841,771.532715 481.242859,769.948608 487.780212,770.882751 
	C490.711395,771.301575 493.783447,771.224121 496.735016,770.882874 
	C500.168579,770.485840 502.112000,771.736023 502.866974,775.005981 
	C504.153595,780.578247 507.458862,782.428528 513.267029,780.350281 
	C507.544220,767.283447 501.838684,754.255981 495.888611,740.489502 
M267.546722,758.898315 
	C262.616119,756.952087 257.489594,755.372742 252.844467,752.891907 
	C250.778595,751.788574 249.683411,748.867676 248.147675,746.771729 
	C250.281769,745.513733 252.480988,743.111938 254.536819,743.229065 
	C259.224335,743.495850 263.841522,744.997375 268.914459,746.089172 
	C269.548767,744.719666 270.496704,742.673157 271.579834,740.334778 
	C263.097748,735.454956 254.738449,734.077087 246.022629,738.030884 
	C241.520905,740.072998 239.351715,743.896973 239.584229,748.914612 
	C239.807526,753.733704 242.244949,757.098877 246.675201,758.847351 
	C250.376495,760.308105 254.200043,761.457397 257.959167,762.773926 
	C261.094696,763.872009 264.173676,765.446228 263.555267,769.315186 
	C262.897339,773.431091 259.179504,774.545776 255.854477,773.892151 
	C250.485962,772.836853 245.300247,770.851501 239.457474,769.083496 
	C238.994507,769.998840 237.975357,772.013794 236.891068,774.157593 
	C244.745071,780.652832 253.277328,782.961609 262.739044,780.038757 
	C272.848785,776.915588 275.252350,767.187622 267.546722,758.898315 
M375.240875,753.437866 
	C372.189514,752.230652 369.022400,750.797119 369.889069,746.799622 
	C370.769348,742.739319 374.510864,742.664246 377.566132,743.106262 
	C381.735199,743.709351 385.788300,745.114075 390.332947,746.289429 
	C391.102081,744.662781 392.063690,742.629089 393.151031,740.329407 
	C384.571899,735.442566 376.061035,733.983582 367.207794,738.200684 
	C362.949097,740.229248 360.854675,743.933594 361.036469,748.742554 
	C361.218201,753.548889 363.607391,756.944031 367.990570,758.768677 
	C371.046906,760.041016 374.264496,760.920227 377.376373,762.066589 
	C381.045868,763.418213 385.613251,764.073425 384.980042,769.607483 
	C384.594177,772.979919 380.163391,774.937134 374.554535,773.831848 
	C371.371765,773.204651 368.364868,771.597351 365.342438,770.284790 
	C364.043243,769.720581 362.905701,768.784058 360.158142,767.042908 
	C360.158142,770.689758 359.113953,774.097229 360.335022,775.431091 
	C366.304474,781.951965 380.858246,783.082947 388.251251,778.191589 
	C396.075195,773.015076 395.558319,761.956665 387.144287,757.895508 
	C383.580048,756.175171 379.694702,755.120117 375.240875,753.437866 
M664.713440,685.019775 
	C663.211609,684.046814 661.709778,683.073853 659.788940,681.829407 
	C658.694153,684.044067 657.705750,686.043701 656.771606,687.933472 
	C665.219788,695.536133 677.600159,697.453003 685.740845,692.688538 
	C689.995544,690.198425 692.205566,686.545227 691.943665,681.582336 
	C691.692078,676.813965 689.306091,673.400757 684.880554,671.613525 
	C681.040344,670.062683 677.096741,668.769836 673.221924,667.302124 
	C670.311035,666.199524 667.394592,664.752747 668.052063,661.011536 
	C668.720642,657.207520 672.120239,656.671326 675.086304,657.096619 
	C679.571045,657.739624 683.953125,659.098633 688.641846,660.216064 
	C689.402893,658.596680 690.307739,656.671204 691.377625,654.394653 
	C683.493286,649.597412 675.419678,648.325989 666.939331,651.442749 
	C661.812134,653.327148 658.987549,657.695557 659.224426,662.567749 
	C659.476074,667.743042 662.100830,671.310730 667.006775,673.075134 
	C670.753235,674.422424 674.555847,675.615051 678.291321,676.990784 
	C681.264404,678.085815 683.864258,679.755188 683.211487,683.471741 
	C682.561218,687.173706 679.429443,688.195557 676.391296,687.893433 
	C672.675415,687.523804 669.048584,686.259338 664.713440,685.019775 
M268.153961,673.332458 
	C263.098846,671.268311 257.864990,669.539734 253.070816,666.985779 
	C250.959488,665.860962 249.742050,663.058228 248.118805,661.017334 
	C250.346542,659.675537 252.629684,657.138123 254.790543,657.238342 
	C259.435608,657.453613 264.017670,659.027710 268.912598,660.109009 
	C269.610199,658.629822 270.520294,656.700012 271.401337,654.831909 
	C264.531677,649.398193 253.388092,648.170898 246.221893,651.870422 
	C241.824371,654.140625 239.418610,657.646423 239.573334,662.666992 
	C239.727997,667.685791 242.232849,671.161560 246.908890,672.936096 
	C250.475479,674.289734 254.124176,675.425659 257.724854,676.691223 
	C261.004028,677.843811 264.330841,679.378235 263.498871,683.553162 
	C262.689026,687.617249 258.893402,688.576294 255.605286,687.896729 
	C250.269394,686.793945 245.125122,684.764099 239.489700,682.996948 
	C238.954941,684.060425 238.003693,685.952148 236.915115,688.117004 
	C244.891876,694.850708 253.716492,697.104248 263.451874,693.815308 
	C272.676727,690.698914 274.883606,681.582275 268.153961,673.332458 
M335.680817,760.311279 
	C335.680817,752.361572 335.680817,744.411865 335.680817,736.262268 
	C332.893799,736.262268 330.654785,736.262268 327.961487,736.262268 
	C327.961487,745.107239 328.097290,753.726746 327.922913,762.340027 
	C327.751648,770.799072 322.690369,775.072205 314.279999,774.223755 
	C307.931793,773.583374 304.236725,769.428650 304.108795,762.280640 
	C303.954712,753.672241 304.072327,745.059021 304.072327,736.284668 
	C301.336090,736.284668 299.102753,736.284668 296.899109,736.284668 
	C296.899109,746.648682 296.429810,756.784668 297.055817,766.852539 
	C297.511292,774.177856 303.337067,779.665833 310.641968,780.851379 
	C325.589478,783.277344 335.829926,776.455322 335.680817,760.311279 
M370.299957,695.265259 
	C381.151398,694.409790 387.497040,689.831299 388.352295,680.241333 
	C389.230835,670.390076 388.547211,660.399475 388.547211,650.276489 
	C386.118835,650.276489 383.874939,650.276489 381.120728,650.276489 
	C381.120728,652.129395 381.123627,653.749573 381.120239,655.369751 
	C381.105011,662.693359 381.237122,670.021179 381.028168,677.339294 
	C380.832336,684.198059 376.771851,688.078613 370.032867,688.333252 
	C362.001953,688.636658 357.555054,684.412048 357.356598,675.815491 
	C357.161194,667.351318 357.313965,658.879028 357.313965,650.333008 
	C354.649048,650.333008 352.408569,650.333008 349.804749,650.333008 
	C349.804749,658.584900 349.781799,666.545776 349.809753,674.506470 
	C349.859222,688.589722 355.530090,694.562256 370.299957,695.265259 
M764.560547,669.902710 
	C762.321472,669.902710 760.082336,669.902710 757.831299,669.902710 
	C757.831299,665.200562 757.831299,661.288208 757.831299,656.859497 
	C765.333252,656.859497 772.565063,656.859497 779.803589,656.859497 
	C779.803589,654.395264 779.803589,652.457886 779.803589,650.433655 
	C769.757690,650.433655 759.922485,650.433655 750.153748,650.433655 
	C750.153748,665.410217 750.153748,679.994019 750.153748,694.782227 
	C752.612732,694.782227 754.849121,694.782227 757.550171,694.782227 
	C757.550171,688.813782 757.550171,683.061462 757.550171,676.694336 
	C764.542175,676.694336 771.098511,676.694336 777.672607,676.694336 
	C777.672607,674.139404 777.672607,672.221375 777.672607,669.902649 
	C773.460754,669.902649 769.502808,669.902649 764.560547,669.902710 
M957.214355,779.864685 
	C956.709412,771.438599 957.568298,763.524841 962.640686,756.160706 
	C966.827881,750.081665 969.862061,743.208435 973.465027,736.580750 
	C968.237000,735.004395 965.263611,736.432739 963.082458,741.015991 
	C960.403320,746.645813 956.946594,751.905518 953.524902,757.848022 
	C949.952637,751.790588 946.395569,746.529480 943.656372,740.872314 
	C941.437256,736.289001 938.513123,735.008789 933.421204,736.666809 
	C935.656921,740.756104 937.726318,744.691895 939.933533,748.548828 
	C945.522400,758.314880 952.112549,767.744080 949.972717,779.981689 
	C949.932678,780.210876 950.302673,780.511780 950.682495,781.080200 
	C952.629761,780.956238 954.754761,780.820923 957.214355,779.864685 
M441.401642,736.027466 
	C432.130920,736.027466 422.860199,736.027466 413.578186,736.027466 
	C413.578186,738.670532 413.578186,740.707825 413.578186,743.237000 
	C418.374664,743.237000 422.781006,743.237000 427.521301,743.237000 
	C427.521301,756.016907 427.521301,768.301086 427.521301,780.799561 
	C430.118927,780.799561 432.363312,780.799561 435.078674,780.799561 
	C435.078674,768.203674 435.078674,755.803406 435.078674,743.017151 
	C439.961304,743.017151 444.390747,743.017151 449.039307,743.017151 
	C449.039307,740.530701 449.039307,738.440002 449.039307,736.027466 
	C446.642731,736.027466 444.502563,736.027466 441.401642,736.027466 
M292.021362,654.424316 
	C293.052887,655.274536 294.028534,656.761536 295.126160,656.857849 
	C298.694275,657.170898 302.307037,656.974976 306.386353,656.974976 
	C306.386353,670.041687 306.386353,682.435242 306.386353,694.680969 
	C309.142609,694.680969 311.392365,694.680969 314.129578,694.680969 
	C314.129578,681.958557 314.129578,669.566101 314.129578,656.741577 
	C319.051178,656.741577 323.471100,656.741577 327.802521,656.741577 
	C327.802521,654.339722 327.802521,652.396790 327.802521,650.034790 
	C316.611908,650.034790 305.655334,649.951965 294.705505,650.184937 
	C293.786774,650.204590 292.913177,652.346252 292.021362,654.424316 
M880.020935,738.587463 
	C880.122437,739.999451 880.223877,741.411377 880.345520,743.103760 
	C885.087708,743.103760 889.369507,743.103760 894.140381,743.103760 
	C894.140381,755.811401 894.140381,768.211365 894.140381,780.618530 
	C897.016235,780.618530 899.377625,780.618530 902.058228,780.618530 
	C902.058228,767.953979 902.058228,755.686951 902.058228,742.966248 
	C906.791016,742.966248 911.212463,742.966248 915.740234,742.966248 
	C915.740234,740.453186 915.740234,738.406006 915.740234,736.036987 
	C904.473328,736.036987 893.507446,736.001526 882.543030,736.107178 
	C881.704346,736.115234 880.875244,737.120911 880.020935,738.587463 
M612.383789,656.975708 
	C615.595764,656.389832 616.226868,657.930542 616.185852,660.874817 
	C616.028809,672.143738 616.122375,683.416077 616.122375,694.773560 
	C618.967285,694.773560 621.222107,694.773560 623.964844,694.773560 
	C623.964844,682.142212 623.964844,669.747314 623.964844,656.906372 
	C628.861816,656.906372 633.282593,656.906372 637.706238,656.906372 
	C637.706238,654.387878 637.706238,652.342285 637.706238,650.394409 
	C625.637878,650.394409 613.910828,650.394409 602.282593,650.394409 
	C602.282593,652.695496 602.282593,654.631714 602.282593,656.975525 
	C605.501709,656.975525 608.463867,656.975525 612.383789,656.975708 
M799.267151,776.290344 
	C799.349731,777.741028 799.432312,779.191711 799.521423,780.756470 
	C808.570374,780.756470 817.294373,780.756470 826.088806,780.756470 
	C826.088806,778.417542 826.088806,776.345825 826.088806,773.933350 
	C819.652405,773.933350 813.550537,773.933350 806.982056,773.933350 
	C806.982056,761.209229 806.982056,748.819519 806.982056,736.281738 
	C804.263794,736.281738 802.024292,736.281738 799.267212,736.281738 
	C799.267212,749.459290 799.267212,762.394897 799.267151,776.290344 
M543.147583,770.478577 
	C543.147583,759.092346 543.147583,747.706116 543.147583,736.301880 
	C540.381226,736.301880 538.296570,736.301880 535.985291,736.301880 
	C535.985291,751.225159 535.985291,765.899658 535.985291,780.684082 
	C538.460754,780.684082 540.670959,780.684082 543.147583,780.684082 
	C543.147583,777.403259 543.147583,774.435913 543.147583,770.478577 
M765.565247,780.987061 
	C767.327393,780.987061 769.089539,780.987061 770.815918,780.987061 
	C770.815918,765.712036 770.815918,751.027405 770.815918,736.295593 
	C768.391663,736.295593 766.306458,736.295593 763.884888,736.295593 
	C763.884888,751.099915 763.881653,765.665894 763.915222,780.231750 
	C763.915710,780.454407 764.371277,780.676025 765.565247,780.987061 
M857.445374,753.501099 
	C857.445374,747.768860 857.445374,742.036560 857.445374,736.299561 
	C854.541321,736.299561 852.455078,736.299561 850.205383,736.299561 
	C850.205383,751.243469 850.205383,765.940369 850.205383,780.691650 
	C852.704285,780.691650 854.935791,780.691650 857.093140,780.691650 
	C857.242920,780.068054 857.384277,779.751892 857.385376,779.435181 
	C857.414307,771.123657 857.428711,762.812134 857.445374,753.501099 
z"/>
<path fill="#3E4B39" opacity="1.000000" stroke="none" 
	d="
M760.943481,403.000000 
	C760.943481,459.797974 760.943481,516.095947 760.943481,572.782471 
	C750.021851,572.782471 739.307495,572.782471 728.057251,572.782471 
	C728.057251,533.693176 728.057251,494.479767 728.057251,455.081970 
	C686.619446,455.081970 645.714050,455.081970 604.398560,455.081970 
	C604.398560,494.403168 604.398560,533.489624 604.398560,572.872498 
	C593.280701,572.872498 582.572144,572.872498 571.628662,572.872498 
	C571.628662,485.382751 571.628662,398.140106 571.628662,310.526703 
	C582.457153,310.526703 593.151672,310.526703 604.349365,310.526703 
	C604.349365,348.682678 604.349365,386.759094 604.349365,425.147522 
	C645.738159,425.147522 686.628784,425.147522 727.918091,425.147522 
	C727.918091,386.952820 727.918091,348.859863 727.918091,310.462616 
	C739.028137,310.462616 749.742065,310.462616 760.943481,310.462616 
	C760.943481,341.280487 760.943481,371.890259 760.943481,403.000000 
z"/>
<path fill="#3E4B39" opacity="1.000000" stroke="none" 
	d="
M341.108215,573.161377 
	C340.007599,571.884460 338.907532,570.628479 338.871918,569.343018 
	C338.691986,562.848083 338.789001,556.345520 338.789001,549.845581 
	C338.788971,472.179810 338.788940,394.514069 338.788971,316.848297 
	C338.788971,314.858429 338.788940,312.868591 338.788940,310.518036 
	C349.761169,310.518036 360.463531,310.518036 371.685913,310.518036 
	C371.685913,348.760773 371.685913,386.837891 371.685913,425.187500 
	C412.963776,425.187500 453.725677,425.187500 494.950195,425.187500 
	C494.950195,387.114532 494.950195,349.020569 494.950195,310.542511 
	C506.112671,310.542511 516.821228,310.542511 527.808716,310.542511 
	C527.808716,397.981842 527.808716,485.371216 527.808716,572.965820 
	C516.976562,572.965820 506.373383,572.965820 495.349365,572.965820 
	C495.349365,533.752747 495.349365,494.661560 495.349365,455.207764 
	C454.052460,455.207764 413.173676,455.207764 371.821136,455.207764 
	C371.821136,494.306366 371.821136,533.380066 371.821136,573.168701 
	C361.443604,573.168701 351.521637,573.168701 341.108215,573.161377 
z"/>
<path fill="#3E4A39" opacity="1.000000" stroke="none" 
	d="
M963.022949,532.957275 
	C951.897461,555.771240 933.077637,568.496521 909.501709,573.834351 
	C866.391418,583.594971 825.607361,575.510132 786.795105,555.449219 
	C784.889282,554.464172 783.138794,553.178650 780.930298,551.790710 
	C784.936035,542.612915 788.888550,533.557007 792.811768,524.568237 
	C802.044617,529.013184 810.739746,533.813049 819.888245,537.482544 
	C842.612122,546.597290 866.197693,551.091125 890.739380,548.012756 
	C906.001404,546.098389 920.003113,541.068359 929.507385,528.003906 
	C942.551758,510.073181 938.363342,484.719727 920.516052,471.617523 
	C905.852600,460.852692 888.630859,456.098145 871.623718,450.960144 
	C854.096191,445.664825 836.638306,440.381195 820.799683,430.794922 
	C792.743530,413.814087 786.082397,384.661591 792.643860,357.555573 
	C798.122253,334.923279 813.369019,320.951202 834.542053,312.928864 
	C855.976135,304.807648 878.190979,304.502869 900.561951,307.319458 
	C919.615967,309.718445 938.141296,314.329681 955.871399,321.862396 
	C956.918274,322.307159 957.956116,322.773376 959.368896,323.391937 
	C955.650879,332.482666 952.031555,341.331970 948.460449,350.063416 
	C937.565979,346.505829 927.171082,342.536072 916.469421,339.741272 
	C896.615479,334.556274 876.423035,332.752838 856.133728,337.108398 
	C842.387634,340.059387 830.615723,346.257935 825.080322,360.217773 
	C818.076477,377.880737 825.215820,397.564667 843.657776,406.547455 
	C858.495789,413.774811 874.468445,418.756958 890.124878,424.196381 
	C905.826294,429.651459 921.641785,434.587097 936.216980,442.930359 
	C969.287781,461.861206 975.308899,498.248383 965.020386,527.981750 
	C964.477722,529.549866 963.770203,531.060913 963.022949,532.957275 
z"/>
<path fill="#3D4A38" opacity="1.000000" stroke="none" 
	d="
M295.456421,422.292053 
	C295.392822,440.775879 295.324158,459.259674 295.266785,477.743530 
	C295.177368,506.555634 295.532959,535.377625 294.882599,564.177002 
	C294.280853,590.822876 275.941833,614.540833 250.357208,623.219849 
	C245.290512,614.344238 240.196548,605.420837 235.208786,596.683472 
	C240.543976,592.784668 246.148300,589.421570 250.858704,585.086975 
	C259.377258,577.248169 261.914948,566.706177 261.952911,555.585205 
	C262.072876,520.444031 261.995026,485.302216 261.984497,449.228699 
	C261.959656,423.215393 261.944031,398.134094 261.928406,373.052765 
	C261.956116,364.648163 261.983795,356.243530 262.033569,346.911469 
	C262.055664,334.102783 262.055664,322.221588 262.055664,310.464722 
	C273.544312,310.464722 284.112183,310.464722 295.127686,310.464722 
	C295.127686,317.300964 295.076233,323.761475 295.138733,330.220886 
	C295.256104,342.347687 295.439331,354.473846 295.595154,366.600250 
	C295.489868,368.126770 295.384583,369.653259 295.212402,372.019409 
	C295.249115,389.336700 295.352783,405.814362 295.456421,422.292053 
z"/>
<path fill="#7BC144" opacity="1.000000" stroke="none" 
	d="
M37.930424,359.051331 
	C38.878300,359.533539 39.948151,359.865417 40.755672,360.520599 
	C52.033073,369.670654 65.022667,372.618500 79.355591,372.549957 
	C108.656837,372.409821 137.961426,372.962250 167.264450,373.247528 
	C167.557770,373.250397 167.848709,373.497650 168.446594,373.770233 
	C168.446594,398.699860 168.446594,423.759705 168.446594,449.020813 
	C167.589417,449.227844 166.809311,449.585785 166.032318,449.579163 
	C146.564255,449.413055 127.073891,449.681793 107.641159,448.751709 
	C100.923836,448.430237 94.065445,445.741943 87.818619,442.922516 
	C84.145554,441.264771 80.611534,437.745636 78.618004,434.169983 
	C64.852798,409.480255 51.509720,384.555176 38.004055,359.362183 
	C37.977127,359.018616 37.930416,359.051361 37.930424,359.051331 
z"/>
<path fill="#7BC144" opacity="1.000000" stroke="none" 
	d="
M288.917053,211.904449 
	C291.856140,210.396362 294.456665,209.040100 297.057220,207.683838 
	C297.318512,207.950317 297.579803,208.216797 297.841095,208.483292 
	C294.709137,213.632126 291.579559,218.782410 288.444763,223.929520 
	C280.224060,237.427338 272.051117,250.954880 263.707550,264.376373 
	C262.796417,265.842010 260.907043,267.670013 259.455719,267.683838 
	C237.378754,267.894348 215.299179,267.830200 193.220200,267.830200 
	C193.143768,267.313904 193.067322,266.797607 192.990891,266.281342 
	C198.909882,262.434784 204.828873,258.588226 211.176178,254.463318 
	C210.033432,252.365189 208.957184,250.373657 207.866882,248.389847 
	C200.176697,234.397751 192.475983,220.411453 184.793533,206.415131 
	C176.396927,191.117737 165.953690,177.918716 148.982895,170.943924 
	C153.902145,170.943924 158.821869,170.988617 163.740570,170.936279 
	C186.548416,170.693588 209.362839,169.983948 232.160858,170.340836 
	C244.440887,170.533066 253.896912,177.208252 260.238403,187.688446 
	C264.711609,195.081055 268.631012,202.808701 272.799469,210.385773 
	C274.072876,212.700409 275.352203,215.011780 276.951172,217.908661 
	C280.982330,215.879654 284.780426,213.967972 288.917053,211.904449 
z"/>
<path fill="#7BC144" opacity="1.000000" stroke="none" 
	d="
M51.694893,362.432800 
	C43.866898,357.911804 37.714222,352.254700 33.720402,344.429810 
	C30.143583,337.421906 29.937517,330.469910 33.661152,323.424866 
	C40.103577,311.235931 46.466904,299.005157 52.997665,286.535583 
	C46.600685,281.471191 40.280548,276.467621 33.137711,270.812714 
	C35.499413,270.580933 36.753483,270.357483 38.008915,270.349548 
	C58.982800,270.216766 79.957024,270.050873 100.930573,270.108246 
	C102.686127,270.113037 105.294296,271.183960 106.061844,272.563324 
	C117.054001,292.318024 127.799385,312.210114 138.588638,332.077515 
	C138.809311,332.483856 138.844498,332.990936 139.273254,334.611694 
	C132.507004,331.016205 126.485741,327.816589 120.005943,324.373322 
	C118.904381,326.048584 117.896873,327.499634 116.971397,329.001221 
	C109.816757,340.609589 102.539688,352.146332 95.622147,363.894623 
	C93.656700,367.232605 91.455406,368.277008 87.675919,368.252502 
	C75.475677,368.173279 63.370884,367.899078 51.694893,362.432800 
z"/>
<path fill="#7BC144" opacity="1.000000" stroke="none" 
	d="
M110.734047,192.718536 
	C112.113976,190.603943 113.476852,188.886398 114.456276,186.972610 
	C121.685089,172.847473 137.887360,169.891174 151.803986,178.173386 
	C164.825073,185.922607 173.275192,197.719894 180.899673,210.406616 
	C183.741867,215.135880 183.647110,218.582962 180.584030,223.288879 
	C170.517181,238.755051 161.034439,254.601288 151.317337,270.295349 
	C150.714172,271.269562 150.025681,272.190948 149.030197,273.642395 
	C127.193100,260.834106 105.467705,248.091324 83.175667,235.016190 
	C92.457535,220.772568 101.498497,206.898621 110.734047,192.718536 
z"/>
<path fill="#7BC144" opacity="1.000000" stroke="none" 
	d="
M261.467163,373.088562 
	C261.944031,398.134094 261.959656,423.215393 261.912964,448.781616 
	C250.410950,449.266541 238.971252,449.266541 227.257401,449.266541 
	C226.877563,457.225006 226.516464,464.790588 226.096527,473.589355 
	C224.620392,471.240204 223.713486,469.945526 222.955887,468.568756 
	C213.577423,451.525116 204.350067,434.396240 194.764038,417.470428 
	C192.477478,413.433136 192.197830,410.492828 194.664444,406.261261 
	C204.459717,389.457092 213.735840,372.350403 223.215286,355.361908 
	C223.922211,354.095001 224.715805,352.876495 226.220078,350.398224 
	C226.679443,358.669861 227.062836,365.573547 227.482162,373.124329 
	C238.831787,373.124329 249.918823,373.124329 261.467163,373.088562 
z"/>
<path fill="#7BC144" opacity="1.000000" stroke="none" 
	d="
M295.984802,366.520752 
	C295.439331,354.473846 295.256104,342.347687 295.138733,330.220886 
	C295.076233,323.761475 295.127686,317.300964 295.127686,310.464722 
	C284.112183,310.464722 273.544312,310.464722 262.055664,310.464722 
	C262.055664,322.221588 262.055664,334.102783 262.001068,346.436829 
	C255.057419,334.433197 248.168365,321.976807 241.019104,309.049927 
	C263.044922,295.691132 284.584595,282.627197 306.499298,269.335785 
	C307.549957,271.265656 308.437531,272.817291 309.252930,274.405945 
	C317.295105,290.074768 324.831116,306.030579 333.525269,321.328339 
	C339.764160,332.305939 336.563629,347.834717 324.637299,355.975433 
	C316.064545,361.827087 306.479340,364.800781 295.984802,366.520752 
z"/>
<path fill="#2D9A42" opacity="1.000000" stroke="none" 
	d="
M722.736206,781.000488 
	C715.777466,781.011963 709.286865,781.011963 702.430969,781.011963 
	C702.430969,766.102478 702.430969,751.385071 702.430969,736.352417 
	C710.180847,736.352417 717.968445,735.966064 725.694153,736.491089 
	C730.676147,736.829651 735.014648,739.248108 736.384460,744.787598 
	C737.801575,750.518311 735.088379,754.378113 730.351562,757.247009 
	C737.247437,761.073242 739.503540,765.340698 738.075989,771.643250 
	C736.811707,777.225098 731.842834,780.347656 722.736206,781.000488 
M716.485596,761.312988 
	C714.380371,761.312988 712.275208,761.312988 710.091492,761.312988 
	C710.091492,765.873047 710.091492,769.789490 710.091492,773.940063 
	C715.115662,773.940063 720.001404,774.550354 724.607727,773.680664 
	C726.885376,773.250671 729.700256,770.406860 730.391052,768.093506 
	C731.367676,764.822754 728.581543,762.605896 725.322876,761.992615 
	C722.735291,761.505615 720.053223,761.520996 716.485596,761.312988 
M725.380432,743.629211 
	C720.341370,743.314087 715.302368,742.999023 710.244507,742.682739 
	C710.244507,747.150452 710.244507,750.827393 710.244507,754.544434 
	C714.777466,754.544434 718.969604,754.997498 722.987244,754.356506 
	C725.047180,754.027832 727.800598,752.068726 728.388672,750.248230 
	C728.928833,748.575989 726.984314,746.101135 725.380432,743.629211 
z"/>
<path fill="#2D9A42" opacity="1.000000" stroke="none" 
	d="
M607.017517,781.013977 
	C604.565186,779.961792 601.896057,779.410950 600.614746,777.773804 
	C593.543335,768.738953 586.810486,759.439148 579.319214,749.366455 
	C579.319214,760.302917 579.319214,770.296570 579.319214,780.649048 
	C576.472229,780.649048 574.116760,780.649048 571.513916,780.649048 
	C571.513916,765.934937 571.513916,751.345642 571.513916,736.524658 
	C575.903564,735.378601 579.134888,735.896362 582.041504,740.127625 
	C588.330627,749.283020 595.230225,758.019104 602.691162,768.013062 
	C602.691162,756.712463 602.691162,746.699097 602.691162,736.366211 
	C605.425720,736.366211 607.658264,736.366211 610.316650,736.366211 
	C610.316650,750.523438 610.360901,764.654602 610.194214,778.783142 
	C610.185303,779.537415 608.399841,780.270691 607.017517,781.013977 
z"/>
<path fill="#2D9A42" opacity="1.000000" stroke="none" 
	d="
M579.289368,693.378845 
	C575.579285,696.014648 572.446716,695.920044 569.675964,692.121094 
	C562.842834,682.752441 555.848572,673.501404 548.178711,663.209534 
	C548.178711,674.401062 548.178711,684.415405 548.178711,694.717529 
	C545.465637,694.717529 543.220337,694.717529 540.618774,694.717529 
	C540.618774,680.041992 540.618774,665.328064 540.618774,650.560181 
	C545.434204,648.953125 548.542480,650.489136 551.429749,654.671692 
	C557.619812,663.638733 564.381409,672.211243 571.817627,682.161072 
	C571.817627,670.616028 571.817627,660.589111 571.817627,650.305542 
	C574.394165,650.305542 576.481934,650.305542 579.315613,650.305542 
	C579.315613,664.490173 579.315613,678.714661 579.289368,693.378845 
z"/>
<path fill="#2E9B43" opacity="1.000000" stroke="none" 
	d="
M819.723267,695.099792 
	C805.491150,692.696350 796.935059,681.119263 799.537109,668.302917 
	C802.191528,655.227783 815.328186,647.289490 828.914062,650.550720 
	C841.979309,653.686951 849.385681,665.885315 845.997864,678.687622 
	C843.150024,689.449463 833.224731,695.759521 819.723267,695.099792 
M809.295166,680.948425 
	C815.780762,691.499817 832.607239,691.196472 837.858398,678.448303 
	C840.645752,671.681396 838.406128,664.262695 832.463379,659.840637 
	C826.807617,655.632324 818.622864,655.773987 813.013977,660.177307 
	C806.792969,665.061340 805.351074,672.155945 809.295166,680.948425 
z"/>
<path fill="#2D9A42" opacity="1.000000" stroke="none" 
	d="
M903.828003,695.015137 
	C900.573547,695.525085 898.650391,694.411255 897.591125,691.724548 
	C897.410706,691.266968 896.999817,690.896057 896.840698,690.434998 
	C893.910461,681.947144 887.769348,679.878235 879.042358,682.145203 
	C879.042358,685.987427 879.042358,690.212036 879.042358,694.717651 
	C876.214600,694.717651 873.961426,694.717651 871.384399,694.717651 
	C871.384399,680.058777 871.384399,665.341797 871.384399,650.637756 
	C879.214172,650.637756 886.995361,650.177002 894.692688,650.782349 
	C900.945679,651.274109 905.691406,654.877625 906.955200,661.429993 
	C908.304138,668.424133 907.030457,674.720764 900.450073,678.901855 
	C899.904358,679.248718 899.395020,679.652771 898.501648,680.293457 
	C901.613525,685.038574 904.656982,689.679321 908.156250,695.015076 
	C906.374451,695.015076 905.303040,695.015076 903.828003,695.015137 
M884.521118,656.957886 
	C882.745300,656.957886 880.969421,656.957886 879.105957,656.957886 
	C879.105957,663.097656 879.105957,668.671936 879.105957,674.919739 
	C883.998108,674.667358 888.641968,674.758667 893.178284,674.104614 
	C898.137634,673.389465 900.169800,670.359558 900.138184,665.361877 
	C900.107361,660.495422 897.351807,658.022766 892.943237,657.257202 
	C890.509644,656.834534 887.967468,657.037109 884.521118,656.957886 
z"/>
<path fill="#2B9940" opacity="1.000000" stroke="none" 
	d="
M415.932220,679.996460 
	C415.932220,669.869080 415.932220,660.241272 415.932220,650.734436 
	C424.201202,650.734436 432.250305,649.795349 439.984314,650.956116 
	C451.370239,652.665100 458.377808,662.794373 457.491760,674.083435 
	C456.596283,685.492432 448.347198,694.109863 436.995880,694.843506 
	C430.218658,695.281555 423.389954,694.923828 415.932220,694.923828 
	C415.932220,690.007812 415.932220,685.251892 415.932220,679.996460 
M438.669983,687.734131 
	C446.746277,684.562927 450.694702,678.633301 449.854706,670.937317 
	C449.077637,663.818298 443.708801,657.871765 436.805054,657.162659 
	C432.557892,656.726440 428.229401,657.081970 423.694000,657.081970 
	C423.694000,667.488892 423.694000,677.574890 423.694000,687.912720 
	C428.575317,687.912720 433.201050,687.912720 438.669983,687.734131 
z"/>
<path fill="#2A9940" opacity="1.000000" stroke="none" 
	d="
M490.200623,657.328125 
	C489.787079,661.223938 489.787079,664.850403 489.787079,668.838135 
	C496.857239,668.838135 503.809967,668.838135 511.080353,668.838135 
	C511.080353,671.265259 511.080353,673.332703 511.080353,675.856567 
	C504.006500,675.856567 497.091278,675.856567 489.864838,675.856567 
	C489.864838,680.025452 489.864838,683.758728 489.864838,687.966919 
	C497.952972,687.966919 506.044861,687.966919 514.618713,687.966919 
	C514.722839,690.328857 514.807434,692.247864 514.910828,694.593262 
	C504.017365,694.593262 493.309540,694.593262 482.265747,694.593262 
	C482.265747,680.050659 482.265747,665.339478 482.265747,650.334717 
	C492.673370,650.334717 503.066345,650.334717 513.731689,650.334717 
	C513.731689,652.354919 513.731689,654.287537 513.731689,657.058899 
	C506.110321,657.058899 498.362244,657.058899 490.200623,657.328125 
z"/>
<path fill="#7BBF45" opacity="1.000000" stroke="none" 
	d="
M295.674377,422.038239 
	C295.352783,405.814362 295.249115,389.336700 295.243225,372.406372 
	C307.960846,371.735748 318.647736,366.607910 328.673157,358.983643 
	C329.003296,359.006012 328.958221,358.965881 328.958252,358.965881 
	C327.498718,362.082886 326.174713,365.272125 324.557404,368.304962 
	C315.040283,386.151672 305.454803,403.961914 295.674377,422.038239 
z"/>
<path fill="#2D9A42" opacity="1.000000" stroke="none" 
	d="
M654.058350,770.953613 
	C652.073792,770.953613 650.543030,771.151978 649.083374,770.913879 
	C645.632874,770.350952 643.740479,771.798523 643.004089,775.088562 
	C641.791931,780.504578 638.554871,782.427979 632.836365,780.454041 
	C635.236450,774.933594 637.644958,769.330566 640.105103,763.750244 
	C643.589294,755.847046 647.219238,748.005676 650.557983,740.041931 
	C651.699951,737.318176 652.904053,735.892273 656.230713,735.883850 
	C659.562561,735.875488 660.812805,737.316711 661.967468,740.021301 
	C667.695251,753.436829 673.578247,766.786133 679.542603,780.470947 
	C674.610413,781.613525 670.713196,781.888855 669.491089,775.954163 
	C668.670654,771.969849 666.235962,770.271851 662.027222,770.888428 
	C659.582214,771.246643 657.041931,770.953613 654.058350,770.953613 
M657.324463,747.397034 
	C656.994629,746.736511 656.664734,746.075989 655.900940,744.546570 
	C652.991333,751.473450 650.444763,757.536194 647.797791,763.838013 
	C653.596985,763.838013 658.659912,763.838013 664.269836,763.838013 
	C661.966675,758.309448 659.824707,753.167725 657.324463,747.397034 
z"/>
<path fill="#2D9A42" opacity="1.000000" stroke="none" 
	d="
M496.010864,740.859009 
	C501.838684,754.255981 507.544220,767.283447 513.267029,780.350281 
	C507.458862,782.428528 504.153595,780.578247 502.866974,775.005981 
	C502.112000,771.736023 500.168579,770.485840 496.735016,770.882874 
	C493.783447,771.224121 490.711395,771.301575 487.780212,770.882751 
	C481.242859,769.948608 476.886841,771.532715 474.872681,778.622864 
	C474.409241,780.254333 470.066223,780.783569 467.508575,781.820068 
	C467.209473,781.357361 466.910400,780.894653 466.611328,780.431946 
	C469.166321,774.540588 471.702728,768.640991 474.281067,762.759888 
	C477.542236,755.321106 480.819122,747.889038 484.128906,740.471802 
	C485.173950,738.129761 485.726105,735.797424 489.517639,735.839111 
	C493.271820,735.880371 494.943756,737.317017 496.010864,740.859009 
M493.839691,753.692810 
	C492.576111,750.864746 491.312500,748.036621 489.699188,744.425842 
	C486.775269,751.364258 484.211731,757.447388 481.518585,763.838135 
	C487.448914,763.838135 492.515869,763.838135 498.044159,763.838135 
	C496.620361,760.458252 495.347626,757.436890 493.839691,753.692810 
z"/>
<path fill="#2C9A41" opacity="1.000000" stroke="none" 
	d="
M267.849365,759.114563 
	C275.252350,767.187622 272.848785,776.915588 262.739044,780.038757 
	C253.277328,782.961609 244.745071,780.652832 236.891068,774.157593 
	C237.975357,772.013794 238.994507,769.998840 239.457474,769.083496 
	C245.300247,770.851501 250.485962,772.836853 255.854477,773.892151 
	C259.179504,774.545776 262.897339,773.431091 263.555267,769.315186 
	C264.173676,765.446228 261.094696,763.872009 257.959167,762.773926 
	C254.200043,761.457397 250.376495,760.308105 246.675201,758.847351 
	C242.244949,757.098877 239.807526,753.733704 239.584229,748.914612 
	C239.351715,743.896973 241.520905,740.072998 246.022629,738.030884 
	C254.738449,734.077087 263.097748,735.454956 271.579834,740.334778 
	C270.496704,742.673157 269.548767,744.719666 268.914459,746.089172 
	C263.841522,744.997375 259.224335,743.495850 254.536819,743.229065 
	C252.480988,743.111938 250.281769,745.513733 248.147675,746.771729 
	C249.683411,748.867676 250.778595,751.788574 252.844467,752.891907 
	C257.489594,755.372742 262.616119,756.952087 267.849365,759.114563 
z"/>
<path fill="#2D9A42" opacity="1.000000" stroke="none" 
	d="
M375.598083,753.600281 
	C379.694702,755.120117 383.580048,756.175171 387.144287,757.895508 
	C395.558319,761.956665 396.075195,773.015076 388.251251,778.191589 
	C380.858246,783.082947 366.304474,781.951965 360.335022,775.431091 
	C359.113953,774.097229 360.158142,770.689758 360.158142,767.042908 
	C362.905701,768.784058 364.043243,769.720581 365.342438,770.284790 
	C368.364868,771.597351 371.371765,773.204651 374.554535,773.831848 
	C380.163391,774.937134 384.594177,772.979919 384.980042,769.607483 
	C385.613251,764.073425 381.045868,763.418213 377.376373,762.066589 
	C374.264496,760.920227 371.046906,760.041016 367.990570,758.768677 
	C363.607391,756.944031 361.218201,753.548889 361.036469,748.742554 
	C360.854675,743.933594 362.949097,740.229248 367.207794,738.200684 
	C376.061035,733.983582 384.571899,735.442566 393.151031,740.329407 
	C392.063690,742.629089 391.102081,744.662781 390.332947,746.289429 
	C385.788300,745.114075 381.735199,743.709351 377.566132,743.106262 
	C374.510864,742.664246 370.769348,742.739319 369.889069,746.799622 
	C369.022400,750.797119 372.189514,752.230652 375.598083,753.600281 
z"/>
<path fill="#2E9B43" opacity="1.000000" stroke="none" 
	d="
M665.048340,685.200806 
	C669.048584,686.259338 672.675415,687.523804 676.391296,687.893433 
	C679.429443,688.195557 682.561218,687.173706 683.211487,683.471741 
	C683.864258,679.755188 681.264404,678.085815 678.291321,676.990784 
	C674.555847,675.615051 670.753235,674.422424 667.006775,673.075134 
	C662.100830,671.310730 659.476074,667.743042 659.224426,662.567749 
	C658.987549,657.695557 661.812134,653.327148 666.939331,651.442749 
	C675.419678,648.325989 683.493286,649.597412 691.377625,654.394653 
	C690.307739,656.671204 689.402893,658.596680 688.641846,660.216064 
	C683.953125,659.098633 679.571045,657.739624 675.086304,657.096619 
	C672.120239,656.671326 668.720642,657.207520 668.052063,661.011536 
	C667.394592,664.752747 670.311035,666.199524 673.221924,667.302124 
	C677.096741,668.769836 681.040344,670.062683 684.880554,671.613525 
	C689.306091,673.400757 691.692078,676.813965 691.943665,681.582336 
	C692.205566,686.545227 689.995544,690.198425 685.740845,692.688538 
	C677.600159,697.453003 665.219788,695.536133 656.771606,687.933472 
	C657.705750,686.043701 658.694153,684.044067 659.788940,681.829407 
	C661.709778,683.073853 663.211609,684.046814 665.048340,685.200806 
z"/>
<path fill="#2C9A41" opacity="1.000000" stroke="none" 
	d="
M268.428925,673.585022 
	C274.883606,681.582275 272.676727,690.698914 263.451874,693.815308 
	C253.716492,697.104248 244.891876,694.850708 236.915115,688.117004 
	C238.003693,685.952148 238.954941,684.060425 239.489700,682.996948 
	C245.125122,684.764099 250.269394,686.793945 255.605286,687.896729 
	C258.893402,688.576294 262.689026,687.617249 263.498871,683.553162 
	C264.330841,679.378235 261.004028,677.843811 257.724854,676.691223 
	C254.124176,675.425659 250.475479,674.289734 246.908890,672.936096 
	C242.232849,671.161560 239.727997,667.685791 239.573334,662.666992 
	C239.418610,657.646423 241.824371,654.140625 246.221893,651.870422 
	C253.388092,648.170898 264.531677,649.398193 271.401337,654.831909 
	C270.520294,656.700012 269.610199,658.629822 268.912598,660.109009 
	C264.017670,659.027710 259.435608,657.453613 254.790543,657.238342 
	C252.629684,657.138123 250.346542,659.675537 248.118805,661.017334 
	C249.742050,663.058228 250.959488,665.860962 253.070816,666.985779 
	C257.864990,669.539734 263.098846,671.268311 268.428925,673.585022 
z"/>
<path fill="#309C45" opacity="1.000000" stroke="none" 
	d="
M335.679871,760.780640 
	C335.829926,776.455322 325.589478,783.277344 310.641968,780.851379 
	C303.337067,779.665833 297.511292,774.177856 297.055817,766.852539 
	C296.429810,756.784668 296.899109,746.648682 296.899109,736.284668 
	C299.102753,736.284668 301.336090,736.284668 304.072327,736.284668 
	C304.072327,745.059021 303.954712,753.672241 304.108795,762.280640 
	C304.236725,769.428650 307.931793,773.583374 314.279999,774.223755 
	C322.690369,775.072205 327.751648,770.799072 327.922913,762.340027 
	C328.097290,753.726746 327.961487,745.107239 327.961487,736.262268 
	C330.654785,736.262268 332.893799,736.262268 335.680817,736.262268 
	C335.680817,744.411865 335.680817,752.361572 335.679871,760.780640 
z"/>
<path fill="#2D9A42" opacity="1.000000" stroke="none" 
	d="
M369.893921,695.274780 
	C355.530090,694.562256 349.859222,688.589722 349.809753,674.506470 
	C349.781799,666.545776 349.804749,658.584900 349.804749,650.333008 
	C352.408569,650.333008 354.649048,650.333008 357.313965,650.333008 
	C357.313965,658.879028 357.161194,667.351318 357.356598,675.815491 
	C357.555054,684.412048 362.001953,688.636658 370.032867,688.333252 
	C376.771851,688.078613 380.832336,684.198059 381.028168,677.339294 
	C381.237122,670.021179 381.105011,662.693359 381.120239,655.369751 
	C381.123627,653.749573 381.120728,652.129395 381.120728,650.276489 
	C383.874939,650.276489 386.118835,650.276489 388.547211,650.276489 
	C388.547211,660.399475 389.230835,670.390076 388.352295,680.241333 
	C387.497040,689.831299 381.151398,694.409790 369.893921,695.274780 
z"/>
<path fill="#2B9940" opacity="1.000000" stroke="none" 
	d="
M765.052673,669.902710 
	C769.502808,669.902649 773.460754,669.902649 777.672607,669.902649 
	C777.672607,672.221375 777.672607,674.139404 777.672607,676.694336 
	C771.098511,676.694336 764.542175,676.694336 757.550171,676.694336 
	C757.550171,683.061462 757.550171,688.813782 757.550171,694.782227 
	C754.849121,694.782227 752.612732,694.782227 750.153748,694.782227 
	C750.153748,679.994019 750.153748,665.410217 750.153748,650.433655 
	C759.922485,650.433655 769.757690,650.433655 779.803589,650.433655 
	C779.803589,652.457886 779.803589,654.395264 779.803589,656.859497 
	C772.565063,656.859497 765.333252,656.859497 757.831299,656.859497 
	C757.831299,661.288208 757.831299,665.200562 757.831299,669.902710 
	C760.082336,669.902710 762.321472,669.902710 765.052673,669.902710 
z"/>
<path fill="#2C9A41" opacity="1.000000" stroke="none" 
	d="
M957.046997,780.275146 
	C954.754761,780.820923 952.629761,780.956238 950.682495,781.080200 
	C950.302673,780.511780 949.932678,780.210876 949.972717,779.981689 
	C952.112549,767.744080 945.522400,758.314880 939.933533,748.548828 
	C937.726318,744.691895 935.656921,740.756104 933.421204,736.666809 
	C938.513123,735.008789 941.437256,736.289001 943.656372,740.872314 
	C946.395569,746.529480 949.952637,751.790588 953.524902,757.848022 
	C956.946594,751.905518 960.403320,746.645813 963.082458,741.015991 
	C965.263611,736.432739 968.237000,735.004395 973.465027,736.580750 
	C969.862061,743.208435 966.827881,750.081665 962.640686,756.160706 
	C957.568298,763.524841 956.709412,771.438599 957.046997,780.275146 
z"/>
<path fill="#309C45" opacity="1.000000" stroke="none" 
	d="
M441.882019,736.027466 
	C444.502563,736.027466 446.642731,736.027466 449.039307,736.027466 
	C449.039307,738.440002 449.039307,740.530701 449.039307,743.017151 
	C444.390747,743.017151 439.961304,743.017151 435.078674,743.017151 
	C435.078674,755.803406 435.078674,768.203674 435.078674,780.799561 
	C432.363312,780.799561 430.118927,780.799561 427.521301,780.799561 
	C427.521301,768.301086 427.521301,756.016907 427.521301,743.237000 
	C422.781006,743.237000 418.374664,743.237000 413.578186,743.237000 
	C413.578186,740.707825 413.578186,738.670532 413.578186,736.027466 
	C422.860199,736.027466 432.130920,736.027466 441.882019,736.027466 
z"/>
<path fill="#2E9B44" opacity="1.000000" stroke="none" 
	d="
M292.019989,653.963135 
	C292.913177,652.346252 293.786774,650.204590 294.705505,650.184937 
	C305.655334,649.951965 316.611908,650.034790 327.802521,650.034790 
	C327.802521,652.396790 327.802521,654.339722 327.802521,656.741577 
	C323.471100,656.741577 319.051178,656.741577 314.129578,656.741577 
	C314.129578,669.566101 314.129578,681.958557 314.129578,694.680969 
	C311.392365,694.680969 309.142609,694.680969 306.386353,694.680969 
	C306.386353,682.435242 306.386353,670.041687 306.386353,656.974976 
	C302.307037,656.974976 298.694275,657.170898 295.126160,656.857849 
	C294.028534,656.761536 293.052887,655.274536 292.019989,653.963135 
z"/>
<path fill="#2E9B44" opacity="1.000000" stroke="none" 
	d="
M880.031311,738.125122 
	C880.875244,737.120911 881.704346,736.115234 882.543030,736.107178 
	C893.507446,736.001526 904.473328,736.036987 915.740234,736.036987 
	C915.740234,738.406006 915.740234,740.453186 915.740234,742.966248 
	C911.212463,742.966248 906.791016,742.966248 902.058228,742.966248 
	C902.058228,755.686951 902.058228,767.953979 902.058228,780.618530 
	C899.377625,780.618530 897.016235,780.618530 894.140381,780.618530 
	C894.140381,768.211365 894.140381,755.811401 894.140381,743.103760 
	C889.369507,743.103760 885.087708,743.103760 880.345520,743.103760 
	C880.223877,741.411377 880.122437,739.999451 880.031311,738.125122 
z"/>
<path fill="#2E9B44" opacity="1.000000" stroke="none" 
	d="
M611.904907,656.975586 
	C608.463867,656.975525 605.501709,656.975525 602.282593,656.975525 
	C602.282593,654.631714 602.282593,652.695496 602.282593,650.394409 
	C613.910828,650.394409 625.637878,650.394409 637.706238,650.394409 
	C637.706238,652.342285 637.706238,654.387878 637.706238,656.906372 
	C633.282593,656.906372 628.861816,656.906372 623.964844,656.906372 
	C623.964844,669.747314 623.964844,682.142212 623.964844,694.773560 
	C621.222107,694.773560 618.967285,694.773560 616.122375,694.773560 
	C616.122375,683.416077 616.028809,672.143738 616.185852,660.874817 
	C616.226868,657.930542 615.595764,656.389832 611.904907,656.975586 
z"/>
<path fill="#2E9B44" opacity="1.000000" stroke="none" 
	d="
M799.267212,775.810425 
	C799.267212,762.394897 799.267212,749.459290 799.267212,736.281738 
	C802.024292,736.281738 804.263794,736.281738 806.982056,736.281738 
	C806.982056,748.819519 806.982056,761.209229 806.982056,773.933350 
	C813.550537,773.933350 819.652405,773.933350 826.088806,773.933350 
	C826.088806,776.345825 826.088806,778.417542 826.088806,780.756470 
	C817.294373,780.756470 808.570374,780.756470 799.521423,780.756470 
	C799.432312,779.191711 799.349731,777.741028 799.267212,775.810425 
z"/>
<path fill="#26973C" opacity="1.000000" stroke="none" 
	d="
M543.147583,770.973572 
	C543.147583,774.435913 543.147583,777.403259 543.147583,780.684082 
	C540.670959,780.684082 538.460754,780.684082 535.985291,780.684082 
	C535.985291,765.899658 535.985291,751.225159 535.985291,736.301880 
	C538.296570,736.301880 540.381226,736.301880 543.147583,736.301880 
	C543.147583,747.706116 543.147583,759.092346 543.147583,770.973572 
z"/>
<path fill="#26973C" opacity="1.000000" stroke="none" 
	d="
M765.089844,780.942627 
	C764.371277,780.676025 763.915710,780.454407 763.915222,780.231750 
	C763.881653,765.665894 763.884888,751.099915 763.884888,736.295593 
	C766.306458,736.295593 768.391663,736.295593 770.815918,736.295593 
	C770.815918,751.027405 770.815918,765.712036 770.815918,780.987061 
	C769.089539,780.987061 767.327393,780.987061 765.089844,780.942627 
z"/>
<path fill="#26973C" opacity="1.000000" stroke="none" 
	d="
M857.445557,754.000854 
	C857.428711,762.812134 857.414307,771.123657 857.385376,779.435181 
	C857.384277,779.751892 857.242920,780.068054 857.093140,780.691650 
	C854.935791,780.691650 852.704285,780.691650 850.205383,780.691650 
	C850.205383,765.940369 850.205383,751.243469 850.205383,736.299561 
	C852.455078,736.299561 854.541321,736.299561 857.445374,736.299561 
	C857.445374,742.036560 857.445374,747.768860 857.445557,754.000854 
z"/>
<path fill="#7BC144" opacity="1.000000" stroke="none" 
	d="
M38.000000,359.001556 
	C37.770519,358.690765 37.510090,358.403107 37.278164,358.094055 
	C37.254700,358.062775 37.403225,357.902405 37.471928,357.801910 
	C37.715973,358.064789 37.960022,358.327698 38.067245,358.820984 
	C37.930416,359.051361 37.977127,359.018616 38.000000,359.001556 
z"/>
<path fill="#7BBF45" opacity="1.000000" stroke="none" 
	d="
M329.024780,359.027222 
	C329.138123,358.793488 329.230011,358.538513 329.321899,358.283508 
	C329.351288,358.497711 329.380646,358.711945 329.184143,358.946014 
	C328.958221,358.965881 329.003296,359.006012 329.024780,359.027222 
z"/>
<path fill="#F9FCFA" opacity="1.000000" stroke="none" 
	d="
M716.949341,761.313171 
	C720.053223,761.520996 722.735291,761.505615 725.322876,761.992615 
	C728.581543,762.605896 731.367676,764.822754 730.391052,768.093506 
	C729.700256,770.406860 726.885376,773.250671 724.607727,773.680664 
	C720.001404,774.550354 715.115662,773.940063 710.091492,773.940063 
	C710.091492,769.789490 710.091492,765.873047 710.091492,761.312988 
	C712.275208,761.312988 714.380371,761.312988 716.949341,761.313171 
z"/>
<path fill="#F9FCFA" opacity="1.000000" stroke="none" 
	d="
M725.757446,743.804565 
	C726.984314,746.101135 728.928833,748.575989 728.388672,750.248230 
	C727.800598,752.068726 725.047180,754.027832 722.987244,754.356506 
	C718.969604,754.997498 714.777466,754.544434 710.244507,754.544434 
	C710.244507,750.827393 710.244507,747.150452 710.244507,742.682739 
	C715.302368,742.999023 720.341370,743.314087 725.757446,743.804565 
z"/>
<path fill="#FCFEFD" opacity="1.000000" stroke="none" 
	d="
M809.112915,680.608032 
	C805.351074,672.155945 806.792969,665.061340 813.013977,660.177307 
	C818.622864,655.773987 826.807617,655.632324 832.463379,659.840637 
	C838.406128,664.262695 840.645752,671.681396 837.858398,678.448303 
	C832.607239,691.196472 815.780762,691.499817 809.112915,680.608032 
z"/>
<path fill="#F9FCFA" opacity="1.000000" stroke="none" 
	d="
M884.997681,656.957886 
	C887.967468,657.037109 890.509644,656.834534 892.943237,657.257202 
	C897.351807,658.022766 900.107361,660.495422 900.138184,665.361877 
	C900.169800,670.359558 898.137634,673.389465 893.178284,674.104614 
	C888.641968,674.758667 883.998108,674.667358 879.105957,674.919739 
	C879.105957,668.671936 879.105957,663.097656 879.105957,656.957886 
	C880.969421,656.957886 882.745300,656.957886 884.997681,656.957886 
z"/>
<path fill="#F9FCFA" opacity="1.000000" stroke="none" 
	d="
M438.248413,687.823425 
	C433.201050,687.912720 428.575317,687.912720 423.694000,687.912720 
	C423.694000,677.574890 423.694000,667.488892 423.694000,657.081970 
	C428.229401,657.081970 432.557892,656.726440 436.805054,657.162659 
	C443.708801,657.871765 449.077637,663.818298 449.854706,670.937317 
	C450.694702,678.633301 446.746277,684.562927 438.248413,687.823425 
z"/>
<path fill="#F9FCFA" opacity="1.000000" stroke="none" 
	d="
M657.503601,747.711548 
	C659.824707,753.167725 661.966675,758.309448 664.269836,763.838013 
	C658.659912,763.838013 653.596985,763.838013 647.797791,763.838013 
	C650.444763,757.536194 652.991333,751.473450 655.900940,744.546570 
	C656.664734,746.075989 656.994629,746.736511 657.503601,747.711548 
z"/>
<path fill="#F9FCFA" opacity="1.000000" stroke="none" 
	d="
M493.957275,754.054199 
	C495.347626,757.436890 496.620361,760.458252 498.044159,763.838135 
	C492.515869,763.838135 487.448914,763.838135 481.518585,763.838135 
	C484.211731,757.447388 486.775269,751.364258 489.699188,744.425842 
	C491.312500,748.036621 492.576111,750.864746 493.957275,754.054199 
z"/>
</svg>