<svg version="1.1" id="Layer_1" xmlns="http://www.w3.org/2000/svg" xmlns:xlink="http://www.w3.org/1999/xlink" x="0px" y="0px"
	 width="100%" viewBox="0 0 1500 1500" enable-background="new 0 0 1500 1500" xml:space="preserve">
<path fill="#000000" opacity="1.000000" stroke="none" 
	d="
M838.000000,1501.000000 
	C558.666687,1501.000000 279.833435,1501.000000 1.000112,1501.000000 
	C1.000075,1001.000122 1.000075,501.000275 1.000037,1.000314 
	C500.999756,1.000209 1000.999512,1.000209 1500.999512,1.000105 
	C1500.999634,500.999664 1500.999634,1000.999329 1500.999756,1500.999512 
	C1280.166626,1501.000000 1059.333374,1501.000000 838.000000,1501.000000 
M491.759979,659.726990 
	C497.030121,658.148193 502.392975,656.823669 507.552521,654.941772 
	C521.629211,649.807312 530.383301,635.156128 521.966370,619.782593 
	C518.271790,613.034363 514.642395,606.247620 511.132050,599.402100 
	C507.334900,591.997253 503.711365,584.503479 499.985107,576.994141 
	C481.255005,588.433838 462.957123,599.609558 444.657257,610.786499 
	C450.716553,622.235046 456.433136,633.036072 462.065430,644.791199 
	C462.023834,651.481262 461.982269,658.171326 461.015289,664.974487 
	C452.104980,664.974487 443.194641,664.974487 434.347168,664.974487 
	C433.988617,658.161011 433.665710,652.024170 433.295593,644.990784 
	C432.076813,646.325317 431.540894,646.726196 431.247528,647.260376 
	C422.366211,663.429260 413.452911,679.581421 404.762451,695.852539 
	C404.123230,697.049316 404.684418,699.350037 405.424255,700.747559 
	C411.536011,712.293030 417.781830,723.768433 424.074188,735.217102 
	C426.683258,739.964233 429.504761,744.594604 432.229675,749.278076 
	C432.535034,749.161621 432.840424,749.045105 433.145782,748.928650 
	C433.557404,742.410278 433.969025,735.891846 434.395508,729.138367 
	C443.719727,729.138367 452.831665,729.138367 461.977844,730.057800 
	C461.985626,759.194092 462.083862,788.330811 461.947571,817.466431 
	C461.905151,826.537659 459.469147,834.841125 451.801575,840.707642 
	C448.024200,843.597778 444.212616,846.443237 439.879730,849.714172 
	C444.176208,857.211853 448.570648,864.880493 453.546112,873.563110 
	C461.081085,868.263428 468.516266,863.856384 474.974335,858.311401 
	C486.549591,848.372681 490.808105,834.774719 490.909088,820.037659 
	C491.171448,781.746155 491.001251,743.451660 491.624908,704.795959 
	C501.085968,687.049805 510.547028,669.303589 520.008118,651.557434 
	C517.471252,652.264038 515.781311,653.675049 514.016968,654.985840 
	C507.175476,660.068909 499.161255,662.164795 491.009857,663.152832 
	C491.018127,662.109192 491.026428,661.065613 491.759979,659.726990 
M657.000000,751.500549 
	C657.000122,775.666321 656.995850,799.832092 657.003296,823.997864 
	C657.005432,830.983459 657.020752,830.987305 664.209106,830.998352 
	C668.875610,831.005554 673.542114,831.008667 678.208618,830.997375 
	C684.977600,830.980896 684.996216,830.974609 684.996643,824.080139 
	C685.001404,755.415894 684.999756,686.751648 684.998901,618.087402 
	C684.998901,617.087463 684.917786,616.082092 684.994873,615.088623 
	C685.228577,612.076233 683.851868,610.923157 680.875244,610.982056 
	C675.044617,611.097412 669.188293,611.313782 663.383179,610.908203 
	C658.336121,610.555542 656.846130,612.244690 656.889038,617.335510 
	C657.123474,645.165894 656.900024,673.000000 657.094971,700.830994 
	C657.128174,705.564514 655.854309,707.135742 650.956299,707.101379 
	C621.458801,706.894653 591.959106,707.001892 562.460144,706.998169 
	C555.015686,706.997253 555.003784,706.987366 555.002319,699.748901 
	C554.996887,672.583191 555.003113,645.417480 554.997681,618.251770 
	C554.996277,611.012634 554.984314,611.009644 547.540588,611.001160 
	C542.707397,610.995605 537.874268,610.993103 533.041077,611.002014 
	C526.017273,611.015015 526.002930,611.019958 526.002563,618.170166 
	C525.998840,686.667725 526.000122,755.165344 526.001160,823.662903 
	C526.001160,824.829468 526.076721,825.999634 526.010010,827.161926 
	C525.850891,829.931519 527.133240,831.042419 529.874756,831.005493 
	C535.873352,830.924500 541.873840,831.002686 547.873596,830.997070 
	C554.980896,830.990356 554.995300,830.981812 554.997131,823.915161 
	C555.004517,795.082825 555.017090,766.250549 554.981812,737.418213 
	C554.978027,734.350403 554.997253,731.935547 559.293518,731.951782 
	C590.458618,732.069458 621.624390,732.047119 652.789734,731.970581 
	C656.156677,731.962280 657.118835,733.419067 657.026184,736.502502 
	C656.886169,741.164734 656.996216,745.834351 657.000000,751.500549 
M748.000000,632.500122 
	C747.998962,627.166992 747.729492,621.816162 748.078613,616.506042 
	C748.378052,611.951904 746.534302,610.690796 742.285400,610.932495 
	C737.135620,611.225403 731.956421,610.991455 726.789917,611.002930 
	C720.022339,611.018005 720.003784,611.025391 720.003357,617.921326 
	C719.998596,686.585571 720.000305,755.249817 720.001221,823.914062 
	C720.001221,824.914001 720.082214,825.919312 720.005127,826.912781 
	C719.771057,829.926697 721.151062,831.076660 724.126160,831.017883 
	C729.956848,830.902771 735.813171,830.685852 741.618225,831.091980 
	C746.667786,831.445190 748.151123,829.751221 748.110535,824.663025 
	C747.880493,795.832642 748.096985,766.998657 747.905151,738.167664 
	C747.873657,733.432739 749.148499,731.864319 754.044983,731.898621 
	C783.542480,732.105225 813.042175,731.998108 842.541138,732.001831 
	C849.984314,732.002747 849.996338,732.012634 849.997681,739.252319 
	C850.003052,767.417969 849.996948,795.583679 850.002319,823.749329 
	C850.003723,830.987366 850.015686,830.990295 857.460571,830.998840 
	C862.293701,831.004333 867.126892,831.006897 871.960022,830.997925 
	C878.982727,830.984924 878.997009,830.980042 878.997498,823.828735 
	C879.001587,763.330872 879.000122,702.833008 878.999634,642.335144 
	C878.999573,633.502136 878.865051,624.666321 879.055237,615.837463 
	C879.135132,612.127686 877.792480,610.814697 874.122620,610.949158 
	C868.297363,611.162415 862.458435,610.990173 856.625305,611.003906 
	C850.031677,611.019409 850.007446,611.030396 850.004944,617.585938 
	C849.994202,645.418274 849.915466,673.251099 850.083069,701.082458 
	C850.110168,705.566589 848.877808,707.122192 844.205078,707.093201 
	C814.207336,706.907166 784.206726,706.868286 754.209961,707.120789 
	C748.916809,707.165344 747.858887,705.314697 747.905334,700.496704 
	C748.120972,678.166260 748.000244,655.832520 748.000000,632.500122 
M1022.531555,613.938171 
	C1009.332764,611.634583 996.209473,608.597412 982.914490,607.227783 
	C968.795410,605.773254 954.610352,607.531616 941.178223,612.265137 
	C926.680176,617.374329 914.806946,626.094727 907.819031,640.408325 
	C902.939941,650.402405 902.123779,660.902039 902.919373,671.825012 
	C903.775208,683.575012 907.920532,693.804199 915.908813,702.322388 
	C924.273682,711.242126 934.955627,716.761475 946.252991,720.841309 
	C961.056519,726.187439 976.111816,730.832458 991.012695,735.914368 
	C1000.865601,739.274780 1010.318665,743.854248 1017.048279,751.863586 
	C1029.806030,767.047485 1026.218628,792.949402 1006.232239,802.847900 
	C993.910889,808.950256 980.891052,810.751160 967.100159,809.229065 
	C953.310303,807.706970 939.869629,805.090210 927.082397,799.798523 
	C919.631470,796.715149 912.543945,792.753662 904.765198,788.927734 
	C902.101562,794.990601 899.912170,801.076904 896.828247,806.670105 
	C893.979309,811.837280 896.251648,813.933777 900.466248,816.256165 
	C924.787292,829.657532 951.203186,834.591492 978.514526,834.789612 
	C992.482483,834.890869 1006.229004,831.813049 1018.901794,825.463379 
	C1033.249268,818.274658 1043.763916,807.498474 1049.125488,792.067261 
	C1052.681763,781.831604 1053.397949,771.319275 1051.828003,760.741821 
	C1049.947754,748.073425 1044.726074,736.927917 1034.757935,728.465759 
	C1022.469421,718.033875 1007.603149,712.921692 992.623413,707.861145 
	C977.717163,702.825378 962.733704,697.794373 948.378662,691.421997 
	C937.069641,686.401855 930.348938,676.722290 930.101379,663.881775 
	C929.869873,651.880493 936.220825,643.283813 946.485291,637.945557 
	C958.845825,631.517212 972.465210,631.075134 985.919373,632.328918 
	C1001.643372,633.794312 1016.960022,637.518555 1031.414307,644.170166 
	C1034.103516,645.407715 1035.247437,644.460327 1036.203979,641.875244 
	C1038.275635,636.276245 1040.515503,630.729004 1042.956665,625.281616 
	C1044.223755,622.454285 1043.614502,620.995117 1040.752197,620.045471 
	C1034.927246,618.112854 1029.144165,616.053589 1022.531555,613.938171 
M458.018372,504.525116 
	C451.225555,496.911560 442.752899,493.548248 432.548584,493.957245 
	C419.791779,494.468567 407.023926,494.754028 394.257996,494.970337 
	C385.222443,495.123444 376.182159,495.000000 365.707764,495.000000 
	C367.651794,496.155396 368.276459,496.715851 369.003174,496.929749 
	C377.820892,499.525177 384.898163,505.286224 389.485046,512.521484 
	C399.708771,528.648193 408.585571,545.627258 418.074768,562.222717 
	C419.453674,564.634155 419.039978,565.842529 416.552368,567.288513 
	C412.400787,569.701721 408.586609,572.695374 404.114349,575.803345 
	C406.616669,576.301758 408.365723,576.945068 410.117737,576.953247 
	C426.608398,577.030334 443.100677,577.084351 459.588837,576.867310 
	C461.239716,576.845642 463.488098,575.380310 464.405212,573.922058 
	C471.272766,563.002441 477.889526,551.924622 484.554260,540.877991 
	C487.631836,535.776978 490.641113,530.634766 494.356842,524.372803 
	C487.057892,527.974976 481.134155,530.898499 475.096130,533.878357 
	C471.919220,528.001770 469.060913,522.490601 465.987427,517.102173 
	C463.645844,512.996948 461.031189,509.047424 458.018372,504.525116 
M279.032410,653.543396 
	C277.723663,652.294373 276.414917,651.045349 275.106171,649.796265 
	C274.944397,651.687073 275.409882,652.870850 276.004517,653.985779 
	C286.015869,672.756836 296.009308,691.537720 306.100494,710.265869 
	C307.800812,713.421509 309.558929,716.688171 311.947449,719.303406 
	C318.461884,726.435974 327.324707,728.618835 336.442932,728.885071 
	C351.094208,729.312805 365.767120,729.008179 380.430847,728.986572 
	C381.864075,728.984436 383.297028,728.798218 384.750610,728.695984 
	C384.750610,707.030334 384.750610,685.770630 384.750610,664.000000 
	C382.723816,664.000000 380.938446,664.000000 379.153107,664.000000 
	C354.991211,664.000000 330.826172,664.227539 306.668976,663.890442 
	C296.695068,663.751282 287.331421,660.785034 279.032410,653.543396 
M270.002289,633.245728 
	C272.647278,647.132751 281.692993,655.443665 294.665192,658.722290 
	C302.834229,660.786987 311.638000,660.386902 320.168091,660.913696 
	C321.159210,660.974792 322.614075,660.153198 323.184113,659.295654 
	C326.168732,654.805664 328.954132,650.182434 331.777008,645.585938 
	C336.019318,638.678345 340.235229,631.754517 344.535278,624.718323 
	C350.409393,627.752808 355.818359,630.546997 362.097443,633.790649 
	C361.433258,632.172913 361.294281,631.724243 361.075928,631.318237 
	C351.856140,614.175842 342.678833,597.010071 333.289612,579.961060 
	C332.676483,578.847778 330.435852,578.094116 328.945312,578.082764 
	C311.953400,577.953003 294.960144,578.000122 277.967224,578.000000 
	C276.058319,578.000000 274.149384,578.000000 271.275238,578.000000 
	C272.654175,579.745422 273.187805,580.775208 274.021118,581.414429 
	C277.651855,584.199463 281.435577,586.787292 285.027252,589.619934 
	C286.745056,590.974731 288.690338,592.275024 287.006744,595.241882 
	C282.404572,603.351685 277.814056,611.489075 273.741943,619.869690 
	C271.865295,623.731812 271.209717,628.187317 270.002289,633.245728 
M396.549225,536.946533 
	C396.654236,534.828491 397.583801,532.273804 396.730774,530.663147 
	C391.088409,520.009521 384.542389,509.885498 374.343201,502.987549 
	C367.128052,498.107727 359.193817,494.733276 350.308472,498.360199 
	C344.070679,500.906403 340.754028,506.336914 337.336639,511.938721 
	C330.531738,523.093384 322.980042,533.790771 315.839691,544.744202 
	C314.605225,546.637878 312.266541,548.873413 315.778046,550.942017 
	C332.531799,560.811401 349.307922,570.642944 366.031403,580.563232 
	C368.453491,581.999939 369.682678,581.307922 371.020691,579.069946 
	C379.316467,565.194092 387.723206,551.384460 396.549225,536.946533 
M701.000000,920.495117 
	C701.000000,916.305237 701.000000,912.115356 701.000000,907.925537 
	C706.881104,914.221252 712.076233,920.393311 716.356873,927.145142 
	C719.299866,931.787048 722.663452,932.872314 727.538696,931.447021 
	C727.538696,918.973145 727.538696,906.635620 727.538696,894.429077 
	C724.830139,894.429077 722.603760,894.429077 719.969116,894.429077 
	C719.969116,902.405273 719.969116,909.968140 719.969116,917.530945 
	C714.268188,911.507385 709.490234,905.114868 704.899353,898.590698 
	C702.305786,894.904968 699.371765,892.616333 694.371704,894.636047 
	C694.371704,906.867249 694.371704,919.221985 694.371704,931.657227 
	C696.658142,931.657227 698.562988,931.657227 701.000000,931.657227 
	C701.000000,928.051636 701.000000,924.763977 701.000000,920.495117 
M857.587097,971.208374 
	C854.813965,969.539856 852.165527,966.756958 849.242371,966.429993 
	C842.735962,965.702209 836.092224,966.202820 829.313599,966.202820 
	C829.313599,978.945435 829.313599,991.165649 829.313599,1003.941223 
	C836.888733,1003.941223 844.194275,1004.373230 851.422974,1003.813599 
	C857.997314,1003.304688 861.904053,996.843628 859.661743,990.671814 
	C858.771301,988.221069 856.526306,986.262512 854.764893,983.901367 
	C858.143677,980.817932 860.131958,976.929382 857.587097,971.208374 
M720.000000,996.397339 
	C720.000000,998.822449 720.000000,1001.247559 720.000000,1003.612976 
	C722.724548,1003.612976 724.630737,1003.612976 727.176208,1003.612976 
	C727.176208,995.633789 727.176208,988.005737 727.176208,980.377747 
	C732.837402,986.510071 737.580017,992.816589 742.053284,999.308716 
	C744.748779,1003.220581 747.745117,1005.487915 752.661255,1003.284302 
	C752.661255,990.955139 752.661255,978.728333 752.661255,966.302246 
	C750.416565,966.302246 748.511719,966.302246 745.910767,966.302246 
	C745.910767,974.390137 745.910767,982.213074 745.910767,991.521301 
	C739.976868,983.525208 734.796265,976.982666 730.135193,970.088989 
	C727.581909,966.312744 724.699829,965.173218 720.000000,966.670410 
	C720.000000,976.204834 720.000000,985.814697 720.000000,996.397339 
M936.988525,931.899963 
	C947.803223,926.749329 951.366699,920.476562 949.974243,909.041077 
	C949.111816,901.958557 943.300964,896.182983 934.588562,894.362671 
	C927.175171,892.813782 920.427002,894.741150 915.071228,900.103638 
	C909.367126,905.814758 908.566284,912.951233 911.046631,920.285583 
	C914.352234,930.060486 925.003052,934.835327 936.988525,931.899963 
M625.997986,910.799744 
	C625.436768,905.495850 623.410339,901.153015 618.868958,897.892578 
	C610.303162,891.742859 600.805237,894.751953 591.424927,894.008789 
	C591.424927,906.960022 591.424927,919.285706 591.424927,932.000000 
	C596.478210,932.000000 601.164429,931.544434 605.731445,932.089050 
	C617.481934,933.490234 627.685486,923.476135 625.997986,910.799744 
M1000.426697,931.643982 
	C998.340210,927.682312 996.253723,923.720642 994.178040,919.779480 
	C999.458740,915.708618 1001.845642,910.405884 1000.919434,905.192627 
	C999.822327,899.017212 995.885742,895.292969 990.007446,894.683167 
	C983.526245,894.010742 976.921387,894.529663 970.377075,894.529663 
	C970.377075,907.107605 970.377075,919.351318 970.377075,931.647888 
	C972.666443,931.647888 974.575562,931.647888 976.734619,931.647888 
	C976.919617,928.076660 977.088257,924.821289 977.252014,921.659851 
	C985.735229,920.093018 986.515259,920.184937 989.831177,926.761414 
	C992.032776,931.127808 994.980225,932.910522 1000.426697,931.643982 
M655.837524,901.021179 
	C661.436768,901.021179 667.036011,901.021179 672.637207,901.021179 
	C672.637207,898.317566 672.637207,896.410889 672.637207,894.319275 
	C663.727539,894.319275 655.164795,894.319275 646.451782,894.319275 
	C646.451782,906.984009 646.451782,919.324951 646.451782,931.619629 
	C655.819214,931.619629 664.731018,931.619629 673.978027,931.619629 
	C673.869690,929.640076 673.783203,928.060059 673.666992,925.937805 
	C666.732971,925.937805 660.151367,925.937805 653.460449,925.937805 
	C653.460449,922.681091 653.460449,920.002930 653.460449,916.770386 
	C659.493408,916.770386 665.075378,916.770386 670.624329,916.770386 
	C670.624329,914.295898 670.624329,912.388977 670.624329,909.917236 
	C664.701904,909.917236 659.119629,909.917236 652.081909,909.917236 
	C653.217163,906.369263 654.064087,903.722412 655.837524,901.021179 
M808.113831,996.369751 
	C804.472229,988.067261 800.398926,979.919495 797.346008,971.405945 
	C795.418823,966.031677 792.407349,965.053345 787.411255,966.461853 
	C782.065186,978.686035 776.667542,991.028259 771.234741,1003.450745 
	C776.647827,1004.938782 779.407959,1003.580017 781.064758,999.131104 
	C782.410767,995.516663 798.374878,994.382263 800.760925,997.491760 
	C801.055908,997.876038 801.294556,998.369690 801.373291,998.843628 
	C802.323242,1004.557556 806.048218,1004.780518 810.965637,1003.417847 
	C810.137085,1001.254211 809.326843,999.138428 808.113831,996.369751 
M647.803833,996.000793 
	C651.469971,996.003479 655.162598,995.753845 658.789124,996.134216 
	C660.220337,996.284302 662.480896,997.655457 662.692139,998.783630 
	C663.807739,1004.741638 667.730957,1004.446167 672.760742,1003.579956 
	C667.231995,990.912109 661.794800,978.454102 655.914490,964.980713 
	C653.040771,966.175049 649.255554,966.526001 648.283325,968.364502 
	C644.128235,976.221558 640.764526,984.500732 637.194153,992.661743 
	C635.661438,996.165283 634.328369,999.756104 632.843811,1003.458740 
	C639.963135,1004.415344 640.241943,1004.523743 642.494751,998.729126 
	C643.468750,996.223877 644.782593,995.871826 647.803833,996.000793 
M543.080750,997.510620 
	C546.717896,1003.644470 554.983093,1006.205750 564.017090,1003.998779 
	C568.857971,1002.816162 572.630981,998.858948 572.984070,994.593872 
	C573.423462,989.287842 570.791687,985.252686 565.418945,983.247375 
	C562.645508,982.212097 559.611755,981.725830 557.042358,980.345947 
	C555.420044,979.474670 554.438049,977.410950 553.168884,975.882141 
	C554.908875,974.923035 556.709045,973.072327 558.376709,973.184937 
	C562.192444,973.442505 565.943359,974.659424 569.739502,975.490906 
	C573.127258,970.520264 572.946838,968.910645 567.486633,967.430176 
	C563.269165,966.286682 558.652832,965.932739 554.280579,966.225464 
	C549.491089,966.545959 545.425842,971.124817 545.018860,975.287476 
	C544.419800,981.414124 546.170410,984.221069 552.315918,986.631470 
	C555.374634,987.831177 558.607788,988.620544 561.580444,989.989685 
	C562.913635,990.603699 564.814026,992.357788 564.655701,993.287781 
	C564.412354,994.717590 562.842224,996.424744 561.419495,997.018616 
	C559.779358,997.703125 557.506470,997.838501 555.829590,997.268188 
	C552.281921,996.061646 548.943054,994.241333 545.352539,992.596680 
	C544.667236,993.894653 543.903687,995.340820 543.080750,997.510620 
M793.804382,908.403137 
	C794.761536,912.303467 797.928101,913.717896 801.227417,914.939819 
	C804.000305,915.966797 806.974915,916.600220 809.529114,918.008423 
	C811.005127,918.822144 812.399780,920.720520 812.694580,922.337891 
	C812.838623,923.127686 810.540344,924.906311 809.078247,925.350037 
	C803.139832,927.152222 798.853943,923.325500 793.027100,919.620789 
	C792.842834,922.972473 791.568726,926.515503 792.761658,927.844910 
	C797.946411,933.623352 811.611389,934.314697 817.576111,929.674316 
	C822.928894,925.510010 822.187195,914.360107 816.052368,912.474792 
	C812.145508,911.274170 808.261536,909.854370 804.607300,908.047424 
	C803.132629,907.318237 802.298401,905.293945 801.172729,903.859070 
	C802.752075,902.908630 804.396912,901.069275 805.898071,901.179871 
	C809.882263,901.473267 813.804443,902.608582 818.202332,903.500488 
	C818.973389,901.885864 819.848755,900.052917 820.681458,898.309204 
	C815.423401,894.180054 809.746887,893.449829 803.872559,894.077759 
	C796.048706,894.914185 792.504150,899.674866 793.804382,908.403137 
M444.002258,903.702515 
	C443.534393,909.180542 445.584198,912.985901 451.102142,914.595276 
	C453.456451,915.281921 455.730560,916.247620 458.091156,916.907593 
	C461.116333,917.753357 464.549469,919.187256 463.340332,922.584900 
	C462.177460,925.852722 458.488525,926.887695 454.881897,925.415894 
	C451.326538,923.964966 447.826385,922.378723 444.120758,920.773254 
	C443.213959,922.680298 442.252991,924.701294 441.195435,926.925354 
	C448.499573,931.497192 455.495575,934.794189 464.126221,931.532532 
	C468.878143,929.736694 471.443787,926.637573 471.923920,921.823364 
	C472.340210,917.649719 468.856415,912.932129 464.381836,911.236023 
	C462.080475,910.363708 459.420135,910.141479 457.420502,908.852234 
	C455.341248,907.511597 453.863129,905.238770 452.122162,903.373535 
	C454.446014,902.584961 456.827332,901.026245 459.079712,901.194336 
	C462.191742,901.426697 465.206635,902.960388 468.452972,903.997437 
	C469.468079,901.867676 470.360870,899.994568 471.294891,898.034912 
	C465.240479,893.771606 458.843079,893.161804 452.459167,894.422058 
	C448.214752,895.259888 444.652191,897.883118 444.002258,903.702515 
M444.080658,973.218750 
	C443.827240,983.409546 445.471130,985.572693 455.288025,988.028687 
	C456.239716,988.266846 457.146729,988.682800 458.097748,988.924805 
	C461.142151,989.699585 464.556549,991.193970 463.334808,994.595093 
	C462.162262,997.859131 458.476898,998.888611 454.869415,997.410278 
	C451.318726,995.955200 447.819550,994.374451 444.126892,992.774841 
	C443.211609,994.693542 442.248840,996.711853 441.206909,998.896057 
	C448.497467,1003.586670 455.515656,1006.773926 464.143677,1003.524353 
	C468.912903,1001.728210 471.626831,998.607910 471.876465,993.801697 
	C472.134125,988.840698 469.183838,985.418213 464.801880,983.458008 
	C462.267578,982.324341 459.277832,982.108276 456.896973,980.763855 
	C454.975983,979.679260 453.660065,977.523193 452.075684,975.842468 
	C454.091339,974.896057 456.168579,973.063171 458.109070,973.198059 
	C461.559448,973.437927 464.926941,974.869751 468.530457,975.858154 
	C469.478729,973.849976 470.365723,971.971558 471.217529,970.167603 
	C461.454956,963.630798 451.411407,964.600342 444.080658,973.218750 
M543.000000,901.600464 
	C543.000000,899.178894 543.000000,896.757385 543.000000,894.388184 
	C539.930664,894.388184 537.693787,894.388184 534.555908,894.388184 
	C535.050232,903.509033 534.982361,912.295227 536.156372,920.912109 
	C537.196655,928.548035 543.299133,932.897461 551.385437,932.960754 
	C560.126587,933.029175 566.917664,929.331238 567.896606,921.988647 
	C569.106750,912.911804 568.933655,903.650574 569.364563,894.331787 
	C566.366699,894.331787 564.461853,894.331787 562.000000,894.331787 
	C562.000000,899.250916 562.174438,903.877258 561.947815,908.483765 
	C561.746643,912.572083 561.588074,916.772095 560.519287,920.678894 
	C559.343445,924.977112 555.229858,926.751282 550.531738,925.940735 
	C546.144775,925.183838 543.091125,921.854187 543.022339,917.539368 
	C542.942810,912.551575 543.001404,907.561523 543.000000,901.600464 
M505.840302,1004.966614 
	C515.340759,1005.032959 523.004028,1000.987122 523.642639,994.058228 
	C524.487732,984.887634 523.850708,975.580444 523.850708,966.383179 
	C521.283142,966.383179 519.376465,966.383179 516.998047,966.383179 
	C516.998047,973.865906 517.382690,981.021362 516.812012,988.099854 
	C516.578125,991.001282 515.017395,994.786316 512.785461,996.350891 
	C506.034912,1001.083313 498.283081,996.460449 498.046600,987.895630 
	C497.850433,980.791321 498.006531,973.677307 498.006531,966.458679 
	C495.365967,966.458679 493.354858,966.458679 491.000000,966.458679 
	C491.000000,973.038574 491.227020,979.189087 490.949799,985.316772 
	C490.466187,996.005981 492.859772,1002.282715 505.840302,1004.966614 
M874.665039,894.000305 
	C872.906799,894.092224 871.148560,894.184143 869.325439,894.279480 
	C869.325439,907.036072 869.325439,919.251099 869.325439,931.716980 
	C871.554382,931.716980 873.457703,931.716980 876.099365,931.716980 
	C876.099365,926.771851 876.099365,922.074951 876.099365,916.854736 
	C882.074768,916.854736 887.317749,916.854736 892.678589,916.854736 
	C892.678589,914.727539 892.678589,913.151001 892.678589,910.851074 
	C887.043335,910.851074 881.669739,910.851074 876.403076,910.851074 
	C876.403076,907.220581 876.403076,904.320801 876.403076,900.880859 
	C882.697571,900.880859 888.602966,900.880859 894.701843,900.880859 
	C894.701843,898.420532 894.701843,896.517151 894.701843,894.000000 
	C888.163574,894.000000 881.895325,894.000000 874.665039,894.000305 
M1035.072754,1002.095825 
	C1037.134521,1002.866699 1039.196167,1003.637573 1042.534912,1004.885925 
	C1039.249146,988.213745 1052.365967,979.195068 1055.673828,966.467590 
	C1050.677002,964.938843 1047.775146,966.628174 1045.767090,971.315918 
	C1044.048096,975.328857 1041.372559,978.931946 1038.732422,983.367676 
	C1036.002563,978.704102 1033.443359,974.888855 1031.461182,970.794128 
	C1029.336426,966.404480 1026.491333,964.717041 1021.355591,966.863220 
	C1022.986694,969.871033 1024.623169,972.706360 1026.089233,975.627136 
	C1030.169556,983.756165 1036.882324,990.977905 1035.072754,1002.095825 
M600.840759,1003.675293 
	C603.082336,1003.675293 605.323975,1003.675293 608.133789,1003.675293 
	C608.133789,993.310608 608.133789,983.403870 608.133789,973.266968 
	C611.947266,973.077148 615.200989,972.915161 618.706909,972.740601 
	C618.706909,970.472961 618.706909,968.566467 618.706909,966.391846 
	C608.438843,966.391846 598.405457,966.391846 588.369141,966.391846 
	C588.369141,968.704956 588.369141,970.613647 588.369141,973.083557 
	C592.284119,973.083557 595.867249,973.083557 600.255981,973.083557 
	C600.255981,983.425171 600.255981,993.200134 600.840759,1003.675293 
M775.906067,895.703430 
	C775.371765,895.174622 774.841919,894.189941 774.302490,894.184753 
	C764.699341,894.091431 755.094971,894.116943 745.305054,894.116943 
	C745.305054,896.586670 745.305054,898.493530 745.305054,900.694824 
	C749.279419,900.921021 752.992310,901.132324 757.226074,901.373291 
	C757.226074,911.808777 757.226074,921.721985 757.226074,931.626892 
	C760.038269,931.626892 762.277039,931.626892 765.086060,931.626892 
	C765.086060,921.365906 765.086060,911.457703 765.086060,900.997925 
	C767.611023,900.997925 769.582397,900.830750 771.514587,901.034729 
	C774.948120,901.397217 776.571655,900.176147 775.906067,895.703430 
M499.000000,915.504639 
	C499.000000,920.912415 499.000000,926.320190 499.000000,931.574341 
	C501.807770,931.574341 503.705505,931.574341 506.167542,931.574341 
	C506.167542,921.272949 506.167542,911.371460 506.167542,900.922302 
	C510.312866,900.922302 513.891541,900.922302 517.716675,900.922302 
	C517.716675,898.449463 517.716675,896.543823 517.716675,894.397278 
	C507.416504,894.397278 497.387299,894.397278 487.374573,894.397278 
	C487.374573,896.715698 487.374573,898.623901 487.374573,901.090820 
	C491.297150,901.090820 494.871307,901.090820 499.000000,901.090820 
	C499.000000,905.938293 499.000000,910.224121 499.000000,915.504639 
M989.000000,994.445801 
	C989.000000,997.530090 989.000000,1000.614441 989.000000,1003.592407 
	C991.765930,1003.592407 993.669128,1003.592407 996.136719,1003.592407 
	C996.136719,993.309509 996.136719,983.406067 996.136719,972.952881 
	C1000.279602,972.952881 1003.857849,972.952881 1007.540283,972.952881 
	C1007.540283,970.365356 1007.540283,968.353577 1007.540283,966.384277 
	C997.189575,966.384277 987.287170,966.384277 977.358826,966.384277 
	C977.358826,968.679504 977.358826,970.587219 977.358826,973.063477 
	C981.266113,973.063477 984.841309,973.063477 989.000000,973.063477 
	C989.000000,980.236145 989.000000,986.849243 989.000000,994.445801 
M910.000000,996.403015 
	C910.000000,998.812683 910.000000,1001.222290 910.000000,1003.649414 
	C918.098450,1003.649414 925.330872,1003.649414 932.674500,1003.649414 
	C932.674500,1001.720764 932.674500,1000.144165 932.674500,997.834351 
	C927.372620,997.834351 922.343750,997.834351 916.804321,997.834351 
	C916.804321,986.876831 916.804321,976.646118 916.804321,966.334045 
	C914.360352,966.334045 912.456726,966.334045 910.000000,966.334045 
	C910.000000,976.237061 910.000000,985.832886 910.000000,996.403015 
M690.840759,1003.675293 
	C693.083313,1003.675293 695.325928,1003.675293 697.645508,1003.675293 
	C697.645508,990.960999 697.645508,978.721069 697.645508,966.324463 
	C695.050049,966.324463 692.811279,966.324463 690.255981,966.324463 
	C690.255981,978.748352 690.255981,990.861755 690.840759,1003.675293 
M880.252441,967.019836 
	C880.252441,979.213745 880.252441,991.407654 880.252441,1003.656738 
	C882.660950,1003.656738 884.561768,1003.656738 886.609741,1003.656738 
	C886.609741,991.007568 886.609741,978.687744 886.609741,966.022339 
	C884.414551,966.136047 882.624756,966.228760 880.252441,967.019836 
M959.000000,979.511719 
	C959.000000,975.097290 959.000000,970.682922 959.000000,966.425415 
	C956.195190,966.425415 954.296265,966.425415 952.358582,966.425415 
	C952.358582,979.074036 952.358582,991.310791 952.358582,1003.670471 
	C954.626038,1003.670471 956.532593,1003.670471 959.000000,1003.670471 
	C959.000000,995.746948 959.000000,988.127075 959.000000,979.511719 
z"/>
<path fill="#3C4937" opacity="1.000000" stroke="none" 
	d="
M657.000000,751.000732 
	C656.996216,745.834351 656.886169,741.164734 657.026184,736.502502 
	C657.118835,733.419067 656.156677,731.962280 652.789734,731.970581 
	C621.624390,732.047119 590.458618,732.069458 559.293518,731.951782 
	C554.997253,731.935547 554.978027,734.350403 554.981812,737.418213 
	C555.017090,766.250549 555.004517,795.082825 554.997131,823.915161 
	C554.995300,830.981812 554.980896,830.990356 547.873596,830.997070 
	C541.873840,831.002686 535.873352,830.924500 529.874756,831.005493 
	C527.133240,831.042419 525.850891,829.931519 526.010010,827.161926 
	C526.076721,825.999634 526.001160,824.829468 526.001160,823.662903 
	C526.000122,755.165344 525.998840,686.667725 526.002563,618.170166 
	C526.002930,611.019958 526.017273,611.015015 533.041077,611.002014 
	C537.874268,610.993103 542.707397,610.995605 547.540588,611.001160 
	C554.984314,611.009644 554.996277,611.012634 554.997681,618.251770 
	C555.003113,645.417480 554.996887,672.583191 555.002319,699.748901 
	C555.003784,706.987366 555.015686,706.997253 562.460144,706.998169 
	C591.959106,707.001892 621.458801,706.894653 650.956299,707.101379 
	C655.854309,707.135742 657.128174,705.564514 657.094971,700.830994 
	C656.900024,673.000000 657.123474,645.165894 656.889038,617.335510 
	C656.846130,612.244690 658.336121,610.555542 663.383179,610.908203 
	C669.188293,611.313782 675.044617,611.097412 680.875244,610.982056 
	C683.851868,610.923157 685.228577,612.076233 684.994873,615.088623 
	C684.917786,616.082092 684.998901,617.087463 684.998901,618.087402 
	C684.999756,686.751648 685.001404,755.415894 684.996643,824.080139 
	C684.996216,830.974609 684.977600,830.980896 678.208618,830.997375 
	C673.542114,831.008667 668.875610,831.005554 664.209106,830.998352 
	C657.020752,830.987305 657.005432,830.983459 657.003296,823.997864 
	C656.995850,799.832092 657.000122,775.666321 657.000000,751.000732 
z"/>
<path fill="#3C4937" opacity="1.000000" stroke="none" 
	d="
M748.000000,633.000061 
	C748.000244,655.832520 748.120972,678.166260 747.905334,700.496704 
	C747.858887,705.314697 748.916809,707.165344 754.209961,707.120789 
	C784.206726,706.868286 814.207336,706.907166 844.205078,707.093201 
	C848.877808,707.122192 850.110168,705.566589 850.083069,701.082458 
	C849.915466,673.251099 849.994202,645.418274 850.004944,617.585938 
	C850.007446,611.030396 850.031677,611.019409 856.625305,611.003906 
	C862.458435,610.990173 868.297363,611.162415 874.122620,610.949158 
	C877.792480,610.814697 879.135132,612.127686 879.055237,615.837463 
	C878.865051,624.666321 878.999573,633.502136 878.999634,642.335144 
	C879.000122,702.833008 879.001587,763.330872 878.997498,823.828735 
	C878.997009,830.980042 878.982727,830.984924 871.960022,830.997925 
	C867.126892,831.006897 862.293701,831.004333 857.460571,830.998840 
	C850.015686,830.990295 850.003723,830.987366 850.002319,823.749329 
	C849.996948,795.583679 850.003052,767.417969 849.997681,739.252319 
	C849.996338,732.012634 849.984314,732.002747 842.541138,732.001831 
	C813.042175,731.998108 783.542480,732.105225 754.044983,731.898621 
	C749.148499,731.864319 747.873657,733.432739 747.905151,738.167664 
	C748.096985,766.998657 747.880493,795.832642 748.110535,824.663025 
	C748.151123,829.751221 746.667786,831.445190 741.618225,831.091980 
	C735.813171,830.685852 729.956848,830.902771 724.126160,831.017883 
	C721.151062,831.076660 719.771057,829.926697 720.005127,826.912781 
	C720.082214,825.919312 720.001221,824.914001 720.001221,823.914062 
	C720.000305,755.249817 719.998596,686.585571 720.003357,617.921326 
	C720.003784,611.025391 720.022339,611.018005 726.789917,611.002930 
	C731.956421,610.991455 737.135620,611.225403 742.285400,610.932495 
	C746.534302,610.690796 748.378052,611.951904 748.078613,616.506042 
	C747.729492,621.816162 747.998962,627.166992 748.000000,633.000061 
z"/>
<path fill="#3C4937" opacity="1.000000" stroke="none" 
	d="
M1022.937744,613.992310 
	C1029.144165,616.053589 1034.927246,618.112854 1040.752197,620.045471 
	C1043.614502,620.995117 1044.223755,622.454285 1042.956665,625.281616 
	C1040.515503,630.729004 1038.275635,636.276245 1036.203979,641.875244 
	C1035.247437,644.460327 1034.103516,645.407715 1031.414307,644.170166 
	C1016.960022,637.518555 1001.643372,633.794312 985.919373,632.328918 
	C972.465210,631.075134 958.845825,631.517212 946.485291,637.945557 
	C936.220825,643.283813 929.869873,651.880493 930.101379,663.881775 
	C930.348938,676.722290 937.069641,686.401855 948.378662,691.421997 
	C962.733704,697.794373 977.717163,702.825378 992.623413,707.861145 
	C1007.603149,712.921692 1022.469421,718.033875 1034.757935,728.465759 
	C1044.726074,736.927917 1049.947754,748.073425 1051.828003,760.741821 
	C1053.397949,771.319275 1052.681763,781.831604 1049.125488,792.067261 
	C1043.763916,807.498474 1033.249268,818.274658 1018.901794,825.463379 
	C1006.229004,831.813049 992.482483,834.890869 978.514526,834.789612 
	C951.203186,834.591492 924.787292,829.657532 900.466248,816.256165 
	C896.251648,813.933777 893.979309,811.837280 896.828247,806.670105 
	C899.912170,801.076904 902.101562,794.990601 904.765198,788.927734 
	C912.543945,792.753662 919.631470,796.715149 927.082397,799.798523 
	C939.869629,805.090210 953.310303,807.706970 967.100159,809.229065 
	C980.891052,810.751160 993.910889,808.950256 1006.232239,802.847900 
	C1026.218628,792.949402 1029.806030,767.047485 1017.048279,751.863586 
	C1010.318665,743.854248 1000.865601,739.274780 991.012695,735.914368 
	C976.111816,730.832458 961.056519,726.187439 946.252991,720.841309 
	C934.955627,716.761475 924.273682,711.242126 915.908813,702.322388 
	C907.920532,693.804199 903.775208,683.575012 902.919373,671.825012 
	C902.123779,660.902039 902.939941,650.402405 907.819031,640.408325 
	C914.806946,626.094727 926.680176,617.374329 941.178223,612.265137 
	C954.610352,607.531616 968.795410,605.773254 982.914490,607.227783 
	C996.209473,608.597412 1009.332764,611.634583 1022.937744,613.992310 
z"/>
<path fill="#3C4A37" opacity="1.000000" stroke="none" 
	d="
M491.003693,705.158386 
	C491.001251,743.451660 491.171448,781.746155 490.909088,820.037659 
	C490.808105,834.774719 486.549591,848.372681 474.974335,858.311401 
	C468.516266,863.856384 461.081085,868.263428 453.546112,873.563110 
	C448.570648,864.880493 444.176208,857.211853 439.879730,849.714172 
	C444.212616,846.443237 448.024200,843.597778 451.801575,840.707642 
	C459.469147,834.841125 461.905151,826.537659 461.947571,817.466431 
	C462.083862,788.330811 461.985626,759.194092 462.268311,729.294067 
	C462.690399,727.718933 462.935913,726.907837 462.937012,726.096313 
	C462.963165,706.904663 462.981720,687.712952 462.923553,668.521484 
	C462.919861,667.300476 462.282959,666.081360 461.940674,664.861389 
	C461.982269,658.171326 462.023834,651.481262 462.348572,643.988281 
	C462.749084,634.046082 462.989044,624.905884 462.920349,615.768005 
	C462.894653,612.349854 463.986847,610.984131 467.495514,611.103455 
	C473.312195,611.301147 479.159882,611.443604 484.958130,611.059692 
	C489.749176,610.742554 490.852142,612.702576 490.814209,617.112244 
	C490.691223,631.413757 490.933228,645.718506 491.034698,660.021973 
	C491.026428,661.065613 491.018127,662.109192 490.932007,664.010620 
	C490.904022,678.298401 490.953857,691.728394 491.003693,705.158386 
z"/>
<path fill="#7AC143" opacity="1.000000" stroke="none" 
	d="
M458.278198,504.776855 
	C461.031189,509.047424 463.645844,512.996948 465.987427,517.102173 
	C469.060913,522.490601 471.919220,528.001770 475.096130,533.878357 
	C481.134155,530.898499 487.057892,527.974976 494.356842,524.372803 
	C490.641113,530.634766 487.631836,535.776978 484.554260,540.877991 
	C477.889526,551.924622 471.272766,563.002441 464.405212,573.922058 
	C463.488098,575.380310 461.239716,576.845642 459.588837,576.867310 
	C443.100677,577.084351 426.608398,577.030334 410.117737,576.953247 
	C408.365723,576.945068 406.616669,576.301758 404.114349,575.803345 
	C408.586609,572.695374 412.400787,569.701721 416.552368,567.288513 
	C419.039978,565.842529 419.453674,564.634155 418.074768,562.222717 
	C408.585571,545.627258 399.708771,528.648193 389.485046,512.521484 
	C384.898163,505.286224 377.820892,499.525177 369.003174,496.929749 
	C368.276459,496.715851 367.651794,496.155396 365.707764,495.000000 
	C376.182159,495.000000 385.222443,495.123444 394.257996,494.970337 
	C407.023926,494.754028 419.791779,494.468567 432.548584,493.957245 
	C442.752899,493.548248 451.225555,496.911560 458.278198,504.776855 
z"/>
<path fill="#7AC143" opacity="1.000000" stroke="none" 
	d="
M279.291809,653.791016 
	C287.331421,660.785034 296.695068,663.751282 306.668976,663.890442 
	C330.826172,664.227539 354.991211,664.000000 379.153107,664.000000 
	C380.938446,664.000000 382.723816,664.000000 384.750610,664.000000 
	C384.750610,685.770630 384.750610,707.030334 384.750610,728.695984 
	C383.297028,728.798218 381.864075,728.984436 380.430847,728.986572 
	C365.767120,729.008179 351.094208,729.312805 336.442932,728.885071 
	C327.324707,728.618835 318.461884,726.435974 311.947449,719.303406 
	C309.558929,716.688171 307.800812,713.421509 306.100494,710.265869 
	C296.009308,691.537720 286.015869,672.756836 276.004517,653.985779 
	C275.409882,652.870850 274.944397,651.687073 275.106171,649.796265 
	C276.414917,651.045349 277.723663,652.294373 279.291809,653.791016 
z"/>
<path fill="#7AC143" opacity="1.000000" stroke="none" 
	d="
M270.001373,632.809753 
	C271.209717,628.187317 271.865295,623.731812 273.741943,619.869690 
	C277.814056,611.489075 282.404572,603.351685 287.006744,595.241882 
	C288.690338,592.275024 286.745056,590.974731 285.027252,589.619934 
	C281.435577,586.787292 277.651855,584.199463 274.021118,581.414429 
	C273.187805,580.775208 272.654175,579.745422 271.275238,578.000000 
	C274.149384,578.000000 276.058319,578.000000 277.967224,578.000000 
	C294.960144,578.000122 311.953400,577.953003 328.945312,578.082764 
	C330.435852,578.094116 332.676483,578.847778 333.289612,579.961060 
	C342.678833,597.010071 351.856140,614.175842 361.075928,631.318237 
	C361.294281,631.724243 361.433258,632.172913 362.097443,633.790649 
	C355.818359,630.546997 350.409393,627.752808 344.535278,624.718323 
	C340.235229,631.754517 336.019318,638.678345 331.777008,645.585938 
	C328.954132,650.182434 326.168732,654.805664 323.184113,659.295654 
	C322.614075,660.153198 321.159210,660.974792 320.168091,660.913696 
	C311.638000,660.386902 302.834229,660.786987 294.665192,658.722290 
	C281.692993,655.443665 272.647278,647.132751 270.001373,632.809753 
z"/>
<path fill="#7AC143" opacity="1.000000" stroke="none" 
	d="
M396.321167,537.249695 
	C387.723206,551.384460 379.316467,565.194092 371.020691,579.069946 
	C369.682678,581.307922 368.453491,581.999939 366.031403,580.563232 
	C349.307922,570.642944 332.531799,560.811401 315.778046,550.942017 
	C312.266541,548.873413 314.605225,546.637878 315.839691,544.744202 
	C322.980042,533.790771 330.531738,523.093384 337.336639,511.938721 
	C340.754028,506.336914 344.070679,500.906403 350.308472,498.360199 
	C359.193817,494.733276 367.128052,498.107727 374.343201,502.987549 
	C384.542389,509.885498 391.088409,520.009521 396.730774,530.663147 
	C397.583801,532.273804 396.654236,534.828491 396.321167,537.249695 
z"/>
<path fill="#7AC143" opacity="1.000000" stroke="none" 
	d="
M461.477966,664.917969 
	C462.282959,666.081360 462.919861,667.300476 462.923553,668.521484 
	C462.981720,687.712952 462.963165,706.904663 462.937012,726.096313 
	C462.935913,726.907837 462.690399,727.718933 462.251190,728.834351 
	C452.831665,729.138367 443.719727,729.138367 434.395508,729.138367 
	C433.969025,735.891846 433.557404,742.410278 433.145782,748.928650 
	C432.840424,749.045105 432.535034,749.161621 432.229675,749.278076 
	C429.504761,744.594604 426.683258,739.964233 424.074188,735.217102 
	C417.781830,723.768433 411.536011,712.293030 405.424255,700.747559 
	C404.684418,699.350037 404.123230,697.049316 404.762451,695.852539 
	C413.452911,679.581421 422.366211,663.429260 431.247528,647.260376 
	C431.540894,646.726196 432.076813,646.325317 433.295593,644.990784 
	C433.665710,652.024170 433.988617,658.161011 434.347168,664.974487 
	C443.194641,664.974487 452.104980,664.974487 461.477966,664.917969 
z"/>
<path fill="#7AC143" opacity="1.000000" stroke="none" 
	d="
M491.397339,659.874512 
	C490.933228,645.718506 490.691223,631.413757 490.814209,617.112244 
	C490.852142,612.702576 489.749176,610.742554 484.958130,611.059692 
	C479.159882,611.443604 473.312195,611.301147 467.495514,611.103455 
	C463.986847,610.984131 462.894653,612.349854 462.920349,615.768005 
	C462.989044,624.905884 462.749084,634.046082 462.390747,643.511230 
	C456.433136,633.036072 450.716553,622.235046 444.657257,610.786499 
	C462.957123,599.609558 481.255005,588.433838 499.985107,576.994141 
	C503.711365,584.503479 507.334900,591.997253 511.132050,599.402100 
	C514.642395,606.247620 518.271790,613.034363 521.966370,619.782593 
	C530.383301,635.156128 521.629211,649.807312 507.552521,654.941772 
	C502.392975,656.823669 497.030121,658.148193 491.397339,659.874512 
z"/>
<path fill="#26973C" opacity="1.000000" stroke="none" 
	d="
M701.000000,920.985718 
	C701.000000,924.763977 701.000000,928.051636 701.000000,931.657227 
	C698.562988,931.657227 696.658142,931.657227 694.371704,931.657227 
	C694.371704,919.221985 694.371704,906.867249 694.371704,894.636047 
	C699.371765,892.616333 702.305786,894.904968 704.899353,898.590698 
	C709.490234,905.114868 714.268188,911.507385 719.969116,917.530945 
	C719.969116,909.968140 719.969116,902.405273 719.969116,894.429077 
	C722.603760,894.429077 724.830139,894.429077 727.538696,894.429077 
	C727.538696,906.635620 727.538696,918.973145 727.538696,931.447021 
	C722.663452,932.872314 719.299866,931.787048 716.356873,927.145142 
	C712.076233,920.393311 706.881104,914.221252 701.000000,907.925537 
	C701.000000,912.115356 701.000000,916.305237 701.000000,920.985718 
z"/>
<path fill="#26973C" opacity="1.000000" stroke="none" 
	d="
M857.738892,971.562805 
	C860.131958,976.929382 858.143677,980.817932 854.764893,983.901367 
	C856.526306,986.262512 858.771301,988.221069 859.661743,990.671814 
	C861.904053,996.843628 857.997314,1003.304688 851.422974,1003.813599 
	C844.194275,1004.373230 836.888733,1003.941223 829.313599,1003.941223 
	C829.313599,991.165649 829.313599,978.945435 829.313599,966.202820 
	C836.092224,966.202820 842.735962,965.702209 849.242371,966.429993 
	C852.165527,966.756958 854.813965,969.539856 857.738892,971.562805 
M837.848694,997.919128 
	C841.764160,997.602478 845.741333,997.586121 849.560547,996.801147 
	C850.842773,996.537537 852.555298,994.315247 852.552490,992.991333 
	C852.549683,991.668030 850.831482,989.458008 849.543152,989.191101 
	C845.308655,988.313782 840.927979,988.141785 835.557678,987.591675 
	C836.131165,991.748962 836.542908,994.733521 837.848694,997.919128 
M836.291565,981.082581 
	C840.519348,980.865479 844.779785,980.866943 848.947327,980.245789 
	C849.776184,980.122192 850.939880,977.475403 850.692322,976.245117 
	C850.446045,975.021240 848.701233,973.349915 847.466858,973.214722 
	C843.798523,972.812988 840.058044,973.070740 836.084534,973.070740 
	C836.084534,975.954773 836.084534,978.078064 836.291565,981.082581 
z"/>
<path fill="#26973C" opacity="1.000000" stroke="none" 
	d="
M720.000000,995.910950 
	C720.000000,985.814697 720.000000,976.204834 720.000000,966.670410 
	C724.699829,965.173218 727.581909,966.312744 730.135193,970.088989 
	C734.796265,976.982666 739.976868,983.525208 745.910767,991.521301 
	C745.910767,982.213074 745.910767,974.390137 745.910767,966.302246 
	C748.511719,966.302246 750.416565,966.302246 752.661255,966.302246 
	C752.661255,978.728333 752.661255,990.955139 752.661255,1003.284302 
	C747.745117,1005.487915 744.748779,1003.220581 742.053284,999.308716 
	C737.580017,992.816589 732.837402,986.510071 727.176208,980.377747 
	C727.176208,988.005737 727.176208,995.633789 727.176208,1003.612976 
	C724.630737,1003.612976 722.724548,1003.612976 720.000000,1003.612976 
	C720.000000,1001.247559 720.000000,998.822449 720.000000,995.910950 
z"/>
<path fill="#26973C" opacity="1.000000" stroke="none" 
	d="
M936.582031,931.943237 
	C925.003052,934.835327 914.352234,930.060486 911.046631,920.285583 
	C908.566284,912.951233 909.367126,905.814758 915.071228,900.103638 
	C920.427002,894.741150 927.175171,892.813782 934.588562,894.362671 
	C943.300964,896.182983 949.111816,901.958557 949.974243,909.041077 
	C951.366699,920.476562 947.803223,926.749329 936.582031,931.943237 
M917.823914,916.506714 
	C920.360596,923.533752 927.438660,927.661926 933.597717,925.706604 
	C939.654663,923.783752 944.182251,916.648621 942.899109,911.048523 
	C941.346680,904.273499 934.388489,899.781860 927.435852,901.066895 
	C920.801025,902.293213 916.604065,908.469666 917.823914,916.506714 
z"/>
<path fill="#26973C" opacity="1.000000" stroke="none" 
	d="
M625.998779,911.243774 
	C627.685486,923.476135 617.481934,933.490234 605.731445,932.089050 
	C601.164429,931.544434 596.478210,932.000000 591.424927,932.000000 
	C591.424927,919.285706 591.424927,906.960022 591.424927,894.008789 
	C600.805237,894.751953 610.303162,891.742859 618.868958,897.892578 
	C623.410339,901.153015 625.436768,905.495850 625.998779,911.243774 
M598.000366,906.668091 
	C598.000366,912.920898 598.000366,919.173767 598.000366,925.758850 
	C605.268127,926.196350 612.001709,926.903809 616.597534,920.635803 
	C619.801270,916.266418 619.934998,911.504761 616.920410,906.779358 
	C612.401672,899.696045 605.520447,900.848511 598.379456,901.283508 
	C598.246033,902.847351 598.123840,904.279785 598.000366,906.668091 
z"/>
<path fill="#26973C" opacity="1.000000" stroke="none" 
	d="
M1000.058350,931.770081 
	C994.980225,932.910522 992.032776,931.127808 989.831177,926.761414 
	C986.515259,920.184937 985.735229,920.093018 977.252014,921.659851 
	C977.088257,924.821289 976.919617,928.076660 976.734619,931.647888 
	C974.575562,931.647888 972.666443,931.647888 970.377075,931.647888 
	C970.377075,919.351318 970.377075,907.107605 970.377075,894.529663 
	C976.921387,894.529663 983.526245,894.010742 990.007446,894.683167 
	C995.885742,895.292969 999.822327,899.017212 1000.919434,905.192627 
	C1001.845642,910.405884 999.458740,915.708618 994.178040,919.779480 
	C996.253723,923.720642 998.340210,927.682312 1000.058350,931.770081 
M989.633850,901.289062 
	C985.571960,901.289062 981.510132,901.289062 977.327515,901.289062 
	C977.327515,906.000549 977.327515,910.221313 977.327515,915.354004 
	C981.411133,914.852295 985.263184,914.927856 988.687378,913.754639 
	C990.774719,913.039368 993.416565,910.519714 993.604431,908.595398 
	C993.814209,906.445496 991.528748,904.052002 989.633850,901.289062 
z"/>
<path fill="#26973C" opacity="1.000000" stroke="none" 
	d="
M655.374268,901.048340 
	C654.064087,903.722412 653.217163,906.369263 652.081909,909.917236 
	C659.119629,909.917236 664.701904,909.917236 670.624329,909.917236 
	C670.624329,912.388977 670.624329,914.295898 670.624329,916.770386 
	C665.075378,916.770386 659.493408,916.770386 653.460449,916.770386 
	C653.460449,920.002930 653.460449,922.681091 653.460449,925.937805 
	C660.151367,925.937805 666.732971,925.937805 673.666992,925.937805 
	C673.783203,928.060059 673.869690,929.640076 673.978027,931.619629 
	C664.731018,931.619629 655.819214,931.619629 646.451782,931.619629 
	C646.451782,919.324951 646.451782,906.984009 646.451782,894.319275 
	C655.164795,894.319275 663.727539,894.319275 672.637207,894.319275 
	C672.637207,896.410889 672.637207,898.317566 672.637207,901.021179 
	C667.036011,901.021179 661.436768,901.021179 655.374268,901.048340 
z"/>
<path fill="#26973C" opacity="1.000000" stroke="none" 
	d="
M808.315186,996.696167 
	C809.326843,999.138428 810.137085,1001.254211 810.965637,1003.417847 
	C806.048218,1004.780518 802.323242,1004.557556 801.373291,998.843628 
	C801.294556,998.369690 801.055908,997.876038 800.760925,997.491760 
	C798.374878,994.382263 782.410767,995.516663 781.064758,999.131104 
	C779.407959,1003.580017 776.647827,1004.938782 771.234741,1003.450745 
	C776.667542,991.028259 782.065186,978.686035 787.411255,966.461853 
	C792.407349,965.053345 795.418823,966.031677 797.346008,971.405945 
	C800.398926,979.919495 804.472229,988.067261 808.315186,996.696167 
M785.940613,988.621521 
	C789.330383,988.621521 792.720215,988.621521 796.824280,988.621521 
	C794.932800,984.202881 793.198669,980.151794 790.984070,974.978394 
	C788.944275,980.110901 787.398560,984.000305 785.940613,988.621521 
z"/>
<path fill="#26973C" opacity="1.000000" stroke="none" 
	d="
M647.348328,996.002014 
	C644.782593,995.871826 643.468750,996.223877 642.494751,998.729126 
	C640.241943,1004.523743 639.963135,1004.415344 632.843811,1003.458740 
	C634.328369,999.756104 635.661438,996.165283 637.194153,992.661743 
	C640.764526,984.500732 644.128235,976.221558 648.283325,968.364502 
	C649.255554,966.526001 653.040771,966.175049 655.914490,964.980713 
	C661.794800,978.454102 667.231995,990.912109 672.760742,1003.579956 
	C667.730957,1004.446167 663.807739,1004.741638 662.692139,998.783630 
	C662.480896,997.655457 660.220337,996.284302 658.789124,996.134216 
	C655.162598,995.753845 651.469971,996.003479 647.348328,996.002014 
M648.864502,984.271362 
	C648.256348,985.646179 647.648132,987.020996 646.982666,988.525269 
	C651.100281,988.525269 654.435120,988.525269 658.489075,988.525269 
	C656.391479,983.801514 654.594055,979.753662 652.470337,974.971069 
	C651.082947,978.382568 650.040466,980.945862 648.864502,984.271362 
z"/>
<path fill="#26973C" opacity="1.000000" stroke="none" 
	d="
M543.110474,997.148804 
	C543.903687,995.340820 544.667236,993.894653 545.352539,992.596680 
	C548.943054,994.241333 552.281921,996.061646 555.829590,997.268188 
	C557.506470,997.838501 559.779358,997.703125 561.419495,997.018616 
	C562.842224,996.424744 564.412354,994.717590 564.655701,993.287781 
	C564.814026,992.357788 562.913635,990.603699 561.580444,989.989685 
	C558.607788,988.620544 555.374634,987.831177 552.315918,986.631470 
	C546.170410,984.221069 544.419800,981.414124 545.018860,975.287476 
	C545.425842,971.124817 549.491089,966.545959 554.280579,966.225464 
	C558.652832,965.932739 563.269165,966.286682 567.486633,967.430176 
	C572.946838,968.910645 573.127258,970.520264 569.739502,975.490906 
	C565.943359,974.659424 562.192444,973.442505 558.376709,973.184937 
	C556.709045,973.072327 554.908875,974.923035 553.168884,975.882080 
	C554.438049,977.410950 555.420044,979.474670 557.042358,980.345947 
	C559.611755,981.725830 562.645508,982.212097 565.418945,983.247375 
	C570.791687,985.252686 573.423462,989.287842 572.984070,994.593872 
	C572.630981,998.858948 568.857971,1002.816162 564.017090,1003.998779 
	C554.983093,1006.205750 546.717896,1003.644470 543.110474,997.148804 
z"/>
<path fill="#26973C" opacity="1.000000" stroke="none" 
	d="
M793.575928,908.072388 
	C792.504150,899.674866 796.048706,894.914185 803.872559,894.077759 
	C809.746887,893.449829 815.423401,894.180054 820.681458,898.309204 
	C819.848755,900.052917 818.973389,901.885864 818.202332,903.500488 
	C813.804443,902.608582 809.882263,901.473267 805.898071,901.179871 
	C804.396912,901.069275 802.752075,902.908630 801.172729,903.859070 
	C802.298401,905.293945 803.132629,907.318237 804.607300,908.047424 
	C808.261536,909.854370 812.145508,911.274170 816.052368,912.474792 
	C822.187195,914.360107 822.928894,925.510010 817.576111,929.674316 
	C811.611389,934.314697 797.946411,933.623352 792.761658,927.844910 
	C791.568726,926.515503 792.842834,922.972473 793.027100,919.620789 
	C798.853943,923.325500 803.139832,927.152222 809.078247,925.350037 
	C810.540344,924.906311 812.838623,923.127686 812.694580,922.337891 
	C812.399780,920.720520 811.005127,918.822144 809.529114,918.008423 
	C806.974915,916.600220 804.000305,915.966797 801.227417,914.939819 
	C797.928101,913.717896 794.761536,912.303467 793.575928,908.072388 
z"/>
<path fill="#26973C" opacity="1.000000" stroke="none" 
	d="
M444.004730,903.284912 
	C444.652191,897.883118 448.214752,895.259888 452.459167,894.422058 
	C458.843079,893.161804 465.240479,893.771606 471.294891,898.034912 
	C470.360870,899.994568 469.468079,901.867676 468.452972,903.997437 
	C465.206635,902.960388 462.191742,901.426697 459.079712,901.194336 
	C456.827332,901.026245 454.446014,902.584961 452.122162,903.373535 
	C453.863129,905.238770 455.341248,907.511597 457.420502,908.852234 
	C459.420135,910.141479 462.080475,910.363708 464.381836,911.236023 
	C468.856415,912.932129 472.340210,917.649719 471.923920,921.823364 
	C471.443787,926.637573 468.878143,929.736694 464.126221,931.532532 
	C455.495575,934.794189 448.499573,931.497192 441.195435,926.925354 
	C442.252991,924.701294 443.213959,922.680298 444.120758,920.773254 
	C447.826385,922.378723 451.326538,923.964966 454.881897,925.415894 
	C458.488525,926.887695 462.177460,925.852722 463.340332,922.584900 
	C464.549469,919.187256 461.116333,917.753357 458.091156,916.907593 
	C455.730560,916.247620 453.456451,915.281921 451.102142,914.595276 
	C445.584198,912.985901 443.534393,909.180542 444.004730,903.284912 
z"/>
<path fill="#26973C" opacity="1.000000" stroke="none" 
	d="
M444.175781,972.824402 
	C451.411407,964.600342 461.454956,963.630798 471.217529,970.167603 
	C470.365723,971.971558 469.478729,973.849976 468.530457,975.858154 
	C464.926941,974.869751 461.559448,973.437927 458.109070,973.198059 
	C456.168579,973.063171 454.091339,974.896057 452.075684,975.842468 
	C453.660065,977.523193 454.975983,979.679260 456.896973,980.763855 
	C459.277832,982.108276 462.267578,982.324341 464.801880,983.458008 
	C469.183838,985.418213 472.134125,988.840698 471.876465,993.801697 
	C471.626831,998.607910 468.912903,1001.728210 464.143677,1003.524353 
	C455.515656,1006.773926 448.497467,1003.586670 441.206909,998.896057 
	C442.248840,996.711853 443.211609,994.693542 444.126892,992.774841 
	C447.819550,994.374451 451.318726,995.955200 454.869415,997.410278 
	C458.476898,998.888611 462.162262,997.859131 463.334808,994.595093 
	C464.556549,991.193970 461.142151,989.699585 458.097748,988.924805 
	C457.146729,988.682800 456.239716,988.266846 455.288025,988.028687 
	C445.471130,985.572693 443.827240,983.409546 444.175781,972.824402 
z"/>
<path fill="#26973C" opacity="1.000000" stroke="none" 
	d="
M543.000000,902.086426 
	C543.001404,907.561523 542.942810,912.551575 543.022339,917.539368 
	C543.091125,921.854187 546.144775,925.183838 550.531738,925.940735 
	C555.229858,926.751282 559.343445,924.977112 560.519287,920.678894 
	C561.588074,916.772095 561.746643,912.572083 561.947815,908.483765 
	C562.174438,903.877258 562.000000,899.250916 562.000000,894.331787 
	C564.461853,894.331787 566.366699,894.331787 569.364563,894.331787 
	C568.933655,903.650574 569.106750,912.911804 567.896606,921.988647 
	C566.917664,929.331238 560.126587,933.029175 551.385437,932.960754 
	C543.299133,932.897461 537.196655,928.548035 536.156372,920.912109 
	C534.982361,912.295227 535.050232,903.509033 534.555908,894.388184 
	C537.693787,894.388184 539.930664,894.388184 543.000000,894.388184 
	C543.000000,896.757385 543.000000,899.178894 543.000000,902.086426 
z"/>
<path fill="#26973C" opacity="1.000000" stroke="none" 
	d="
M505.416199,1004.926636 
	C492.859772,1002.282715 490.466187,996.005981 490.949799,985.316772 
	C491.227020,979.189087 491.000000,973.038574 491.000000,966.458679 
	C493.354858,966.458679 495.365967,966.458679 498.006531,966.458679 
	C498.006531,973.677307 497.850433,980.791321 498.046600,987.895630 
	C498.283081,996.460449 506.034912,1001.083313 512.785461,996.350891 
	C515.017395,994.786316 516.578125,991.001282 516.812012,988.099854 
	C517.382690,981.021362 516.998047,973.865906 516.998047,966.383179 
	C519.376465,966.383179 521.283142,966.383179 523.850708,966.383179 
	C523.850708,975.580444 524.487732,984.887634 523.642639,994.058228 
	C523.004028,1000.987122 515.340759,1005.032959 505.416199,1004.926636 
z"/>
<path fill="#7AC143" opacity="1.000000" stroke="none" 
	d="
M491.314301,704.977173 
	C490.953857,691.728394 490.904022,678.298401 490.939484,664.401917 
	C499.161255,662.164795 507.175476,660.068909 514.016968,654.985840 
	C515.781311,653.675049 517.471252,652.264038 520.008118,651.557434 
	C510.547028,669.303589 501.085968,687.049805 491.314301,704.977173 
z"/>
<path fill="#26973C" opacity="1.000000" stroke="none" 
	d="
M875.146057,894.000122 
	C881.895325,894.000000 888.163574,894.000000 894.701843,894.000000 
	C894.701843,896.517151 894.701843,898.420532 894.701843,900.880859 
	C888.602966,900.880859 882.697571,900.880859 876.403076,900.880859 
	C876.403076,904.320801 876.403076,907.220581 876.403076,910.851074 
	C881.669739,910.851074 887.043335,910.851074 892.678589,910.851074 
	C892.678589,913.151001 892.678589,914.727539 892.678589,916.854736 
	C887.317749,916.854736 882.074768,916.854736 876.099365,916.854736 
	C876.099365,922.074951 876.099365,926.771851 876.099365,931.716980 
	C873.457703,931.716980 871.554382,931.716980 869.325439,931.716980 
	C869.325439,919.251099 869.325439,907.036072 869.325439,894.279480 
	C871.148560,894.184143 872.906799,894.092224 875.146057,894.000122 
z"/>
<path fill="#26973C" opacity="1.000000" stroke="none" 
	d="
M1035.046631,1001.640869 
	C1036.882324,990.977905 1030.169556,983.756165 1026.089233,975.627136 
	C1024.623169,972.706360 1022.986694,969.871033 1021.355591,966.863220 
	C1026.491333,964.717041 1029.336426,966.404480 1031.461182,970.794128 
	C1033.443359,974.888855 1036.002563,978.704102 1038.732422,983.367676 
	C1041.372559,978.931946 1044.048096,975.328857 1045.767090,971.315918 
	C1047.775146,966.628174 1050.677002,964.938843 1055.673828,966.467590 
	C1052.365967,979.195068 1039.249146,988.213745 1042.534912,1004.885925 
	C1039.196167,1003.637573 1037.134521,1002.866699 1035.046631,1001.640869 
z"/>
<path fill="#26973C" opacity="1.000000" stroke="none" 
	d="
M600.548340,1003.325195 
	C600.255981,993.200134 600.255981,983.425171 600.255981,973.083557 
	C595.867249,973.083557 592.284119,973.083557 588.369141,973.083557 
	C588.369141,970.613647 588.369141,968.704956 588.369141,966.391846 
	C598.405457,966.391846 608.438843,966.391846 618.706909,966.391846 
	C618.706909,968.566467 618.706909,970.472961 618.706909,972.740601 
	C615.200989,972.915161 611.947266,973.077148 608.133789,973.266968 
	C608.133789,983.403870 608.133789,993.310608 608.133789,1003.675293 
	C605.323975,1003.675293 603.082336,1003.675293 600.548340,1003.325195 
z"/>
<path fill="#26973C" opacity="1.000000" stroke="none" 
	d="
M775.938782,896.151489 
	C776.571655,900.176147 774.948120,901.397217 771.514587,901.034729 
	C769.582397,900.830750 767.611023,900.997925 765.086060,900.997925 
	C765.086060,911.457703 765.086060,921.365906 765.086060,931.626892 
	C762.277039,931.626892 760.038269,931.626892 757.226074,931.626892 
	C757.226074,921.721985 757.226074,911.808777 757.226074,901.373291 
	C752.992310,901.132324 749.279419,900.921021 745.305054,900.694824 
	C745.305054,898.493530 745.305054,896.586670 745.305054,894.116943 
	C755.094971,894.116943 764.699341,894.091431 774.302490,894.184753 
	C774.841919,894.189941 775.371765,895.174622 775.938782,896.151489 
z"/>
<path fill="#26973C" opacity="1.000000" stroke="none" 
	d="
M499.000000,915.007324 
	C499.000000,910.224121 499.000000,905.938293 499.000000,901.090820 
	C494.871307,901.090820 491.297150,901.090820 487.374573,901.090820 
	C487.374573,898.623901 487.374573,896.715698 487.374573,894.397278 
	C497.387299,894.397278 507.416504,894.397278 517.716675,894.397278 
	C517.716675,896.543823 517.716675,898.449463 517.716675,900.922302 
	C513.891541,900.922302 510.312866,900.922302 506.167542,900.922302 
	C506.167542,911.371460 506.167542,921.272949 506.167542,931.574341 
	C503.705505,931.574341 501.807770,931.574341 499.000000,931.574341 
	C499.000000,926.320190 499.000000,920.912415 499.000000,915.007324 
z"/>
<path fill="#26973C" opacity="1.000000" stroke="none" 
	d="
M989.000000,993.954102 
	C989.000000,986.849243 989.000000,980.236145 989.000000,973.063477 
	C984.841309,973.063477 981.266113,973.063477 977.358826,973.063477 
	C977.358826,970.587219 977.358826,968.679504 977.358826,966.384277 
	C987.287170,966.384277 997.189575,966.384277 1007.540283,966.384277 
	C1007.540283,968.353577 1007.540283,970.365356 1007.540283,972.952881 
	C1003.857849,972.952881 1000.279602,972.952881 996.136719,972.952881 
	C996.136719,983.406067 996.136719,993.309509 996.136719,1003.592407 
	C993.669128,1003.592407 991.765930,1003.592407 989.000000,1003.592407 
	C989.000000,1000.614441 989.000000,997.530090 989.000000,993.954102 
z"/>
<path fill="#26973C" opacity="1.000000" stroke="none" 
	d="
M910.000000,995.915833 
	C910.000000,985.832886 910.000000,976.237061 910.000000,966.334045 
	C912.456726,966.334045 914.360352,966.334045 916.804321,966.334045 
	C916.804321,976.646118 916.804321,986.876831 916.804321,997.834351 
	C922.343750,997.834351 927.372620,997.834351 932.674500,997.834351 
	C932.674500,1000.144165 932.674500,1001.720764 932.674500,1003.649414 
	C925.330872,1003.649414 918.098450,1003.649414 910.000000,1003.649414 
	C910.000000,1001.222290 910.000000,998.812683 910.000000,995.915833 
z"/>
<path fill="#26973C" opacity="1.000000" stroke="none" 
	d="
M690.548340,1003.325195 
	C690.255981,990.861755 690.255981,978.748352 690.255981,966.324463 
	C692.811279,966.324463 695.050049,966.324463 697.645508,966.324463 
	C697.645508,978.721069 697.645508,990.960999 697.645508,1003.675293 
	C695.325928,1003.675293 693.083313,1003.675293 690.548340,1003.325195 
z"/>
<path fill="#26973C" opacity="1.000000" stroke="none" 
	d="
M880.543701,966.670654 
	C882.624756,966.228760 884.414551,966.136047 886.609741,966.022339 
	C886.609741,978.687744 886.609741,991.007568 886.609741,1003.656738 
	C884.561768,1003.656738 882.660950,1003.656738 880.252441,1003.656738 
	C880.252441,991.407654 880.252441,979.213745 880.543701,966.670654 
z"/>
<path fill="#26973C" opacity="1.000000" stroke="none" 
	d="
M959.000000,980.009460 
	C959.000000,988.127075 959.000000,995.746948 959.000000,1003.670471 
	C956.532593,1003.670471 954.626038,1003.670471 952.358582,1003.670471 
	C952.358582,991.310791 952.358582,979.074036 952.358582,966.425415 
	C954.296265,966.425415 956.195190,966.425415 959.000000,966.425415 
	C959.000000,970.682922 959.000000,975.097290 959.000000,980.009460 
z"/>
<path fill="#000000" opacity="1.000000" stroke="none" 
	d="
M837.401672,997.818604 
	C836.542908,994.733521 836.131165,991.748962 835.557678,987.591675 
	C840.927979,988.141785 845.308655,988.313782 849.543152,989.191101 
	C850.831482,989.458008 852.549683,991.668030 852.552490,992.991333 
	C852.555298,994.315247 850.842773,996.537537 849.560547,996.801147 
	C845.741333,997.586121 841.764160,997.602478 837.401672,997.818604 
z"/>
<path fill="#000000" opacity="1.000000" stroke="none" 
	d="
M836.188049,980.641968 
	C836.084534,978.078064 836.084534,975.954773 836.084534,973.070740 
	C840.058044,973.070740 843.798523,972.812988 847.466858,973.214722 
	C848.701233,973.349915 850.446045,975.021240 850.692322,976.245117 
	C850.939880,977.475403 849.776184,980.122192 848.947327,980.245789 
	C844.779785,980.866943 840.519348,980.865479 836.188049,980.641968 
z"/>
<path fill="#000000" opacity="1.000000" stroke="none" 
	d="
M917.611755,916.171753 
	C916.604065,908.469666 920.801025,902.293213 927.435852,901.066895 
	C934.388489,899.781860 941.346680,904.273499 942.899109,911.048523 
	C944.182251,916.648621 939.654663,923.783752 933.597717,925.706604 
	C927.438660,927.661926 920.360596,923.533752 917.611755,916.171753 
z"/>
<path fill="#000000" opacity="1.000000" stroke="none" 
	d="
M598.000977,906.190186 
	C598.123840,904.279785 598.246033,902.847351 598.379456,901.283508 
	C605.520447,900.848511 612.401672,899.696045 616.920410,906.779358 
	C619.934998,911.504761 619.801270,916.266418 616.597534,920.635803 
	C612.001709,926.903809 605.268127,926.196350 598.000366,925.758850 
	C598.000366,919.173767 598.000366,912.920898 598.000977,906.190186 
z"/>
<path fill="#000000" opacity="1.000000" stroke="none" 
	d="
M989.981567,901.526855 
	C991.528748,904.052002 993.814209,906.445496 993.604431,908.595398 
	C993.416565,910.519714 990.774719,913.039368 988.687378,913.754639 
	C985.263184,914.927856 981.411133,914.852295 977.327515,915.354004 
	C977.327515,910.221313 977.327515,906.000549 977.327515,901.289062 
	C981.510132,901.289062 985.571960,901.289062 989.981567,901.526855 
z"/>
<path fill="#000000" opacity="1.000000" stroke="none" 
	d="
M785.896729,988.255615 
	C787.398560,984.000305 788.944275,980.110901 790.984070,974.978394 
	C793.198669,980.151794 794.932800,984.202881 796.824280,988.621521 
	C792.720215,988.621521 789.330383,988.621521 785.896729,988.255615 
z"/>
<path fill="#000000" opacity="1.000000" stroke="none" 
	d="
M648.931274,983.890259 
	C650.040466,980.945862 651.082947,978.382568 652.470337,974.971069 
	C654.594055,979.753662 656.391479,983.801514 658.489075,988.525269 
	C654.435120,988.525269 651.100281,988.525269 646.982666,988.525269 
	C647.648132,987.020996 648.256348,985.646179 648.931274,983.890259 
z"/>
</svg>